<svg width="84" height="84" viewBox="0 0 84 84" fill="none" xmlns="http://www.w3.org/2000/svg">
<g clip-path="url(#clip0_132_1512)">
<path d="M43.2611 42.0292H40.2313V45.0459H43.2575V42.0292H43.2611ZM24.33 20.2111L20.8856 15.8979L22.2171 14.8424L27.8844 17.399L30.5584 15.2807L24.2493 12.6657C24.5611 11.9426 24.6674 11.1501 24.5611 10.3722C24.4243 9.53315 24.0661 8.74538 23.523 8.08957C22.8475 7.26668 21.892 6.71951 20.8379 6.552C20.2054 6.45711 19.5597 6.49947 18.9452 6.67617C18.1859 6.90626 17.4779 7.28609 16.869 7.79374L13.0835 10.7885L22.0447 22.0226L24.33 20.2148V20.2111ZM19.2936 13.9038L16.9974 11.0259L18.516 9.82069C18.7097 9.65185 18.9355 9.52346 19.18 9.44316C19.4244 9.36285 19.6826 9.33227 19.9392 9.35322C20.1867 9.37782 20.4261 9.45433 20.6416 9.57771C20.8572 9.70109 21.0441 9.86855 21.19 10.069C21.3443 10.2522 21.4604 10.464 21.5315 10.6922C21.6027 10.9205 21.6275 11.1605 21.6045 11.3984C21.5727 11.6583 21.4859 11.9085 21.35 12.1326C21.2141 12.3566 21.032 12.5496 20.8159 12.6986L19.2936 13.9038ZM44.5963 8.55339C44.6404 9.408 44.4203 10.2517 43.9618 10.9711C43.5583 11.5372 42.799 11.8257 41.7022 11.8257C40.6238 11.8403 39.8681 11.5336 39.4573 10.9675C38.9979 10.2471 38.776 9.4018 38.8227 8.54974L38.8337 0.00365217L35.8112 0L35.8002 9.00626C35.7855 10.0106 36.0203 11.0077 36.4898 11.8988C36.9513 12.7647 37.6511 13.4818 38.5073 13.9659C39.455 14.4803 40.5202 14.742 41.5995 14.7256H41.6985C42.8136 14.7621 43.9177 14.4991 44.8971 13.9732C45.752 13.4908 46.4517 12.7764 46.9146 11.9134C47.3847 11.0217 47.6254 10.0279 47.6152 9.02087L47.6262 0.0146087L44.6073 0.0109565L44.5963 8.55704V8.55339ZM58.5425 13.6336L60.1639 14.6927C60.6491 15.0058 61.1781 15.2458 61.7338 15.4049C62.3097 15.5729 62.9076 15.635 63.5092 15.5875C64.1328 15.5363 64.7343 15.3391 65.2699 15.0177C65.881 14.6324 66.3964 14.1142 66.7775 13.5021C67.0342 13.093 67.2397 12.6548 67.3791 12.1946C67.5606 11.6117 67.6113 10.9962 67.5276 10.3916C67.444 9.78704 67.228 9.20813 66.8949 8.69583C66.4158 7.98884 65.7889 7.39333 65.0571 6.95009L61.1359 4.39357L53.3411 16.2339L53.2421 16.3873L55.6777 17.9797L58.5389 13.6336H58.5425ZM62.1483 8.148L63.5972 9.09391C63.8288 9.23318 64.0288 9.41878 64.1846 9.63897C64.3404 9.85916 64.4486 10.1092 64.5024 10.3731C64.5562 10.6371 64.5544 10.9093 64.4971 11.1726C64.4398 11.4358 64.3282 11.6843 64.1694 11.9024C63.9656 12.2396 63.6587 12.503 63.2938 12.6542C62.9288 12.8053 62.5249 12.8362 62.141 12.7424C61.8778 12.6832 61.6295 12.5714 61.411 12.4137L59.9658 11.4678L62.1483 8.148ZM64.2942 25.1416L65.666 27.7054L70.2732 25.2657L71.1829 26.9713C71.4569 27.478 71.8042 27.9419 72.2136 28.3482C72.6371 28.7702 73.1343 29.1117 73.6809 29.3562C74.2518 29.6114 74.8751 29.7291 75.5003 29.6995C76.2223 29.6551 76.9248 29.4478 77.5544 29.0932C77.9796 28.8614 78.3708 28.5726 78.7172 28.235C79.1573 27.8108 79.4984 27.2956 79.7164 26.7257C79.9345 26.1558 80.0241 25.5452 79.979 24.937C79.9 24.0876 79.6372 23.2653 79.2087 22.5266L77.0079 18.4033L64.4556 25.0576L64.2942 25.1416ZM76.0872 22.1833L76.8978 23.7063C77.033 23.9391 77.1183 24.1973 77.1485 24.4645C77.1786 24.7318 77.153 25.0024 77.073 25.2593C76.9931 25.5162 76.8607 25.7538 76.6841 25.9573C76.5075 26.1608 76.2905 26.3257 76.0468 26.4417C75.7048 26.6392 75.3084 26.723 74.9153 26.681C74.5222 26.639 74.1527 26.4733 73.8606 26.208C73.6581 26.0309 73.4956 25.8131 73.3838 25.5689L72.5694 24.0496L76.0872 22.187V22.1833ZM5.67755 50.2503L6.17642 52.6972L4.29467 53.0734C3.62707 52.5365 3.16856 51.671 2.93013 50.5023C2.7657 49.7355 2.81178 48.9388 3.06351 48.1958C3.31525 47.4529 3.76334 46.7912 4.3607 46.2803C5.03257 45.7155 5.84245 45.3375 6.7083 45.1847C7.52262 45.0094 8.36629 45.0203 9.17694 45.2139C9.9375 45.3899 10.6367 45.7657 11.2017 46.3023C11.7765 46.8643 12.1611 47.5906 12.3022 48.3803C12.4746 49.1108 12.4342 49.8741 12.1775 50.579C11.9024 51.2411 11.5027 51.8448 11 52.3576L10.8533 52.5037L13.1532 54.2311L13.2669 54.107C13.9637 53.35 14.4946 52.457 14.8259 51.4847C15.1959 50.3055 15.239 49.0487 14.9506 47.8471C14.7588 46.839 14.3591 45.8815 13.7768 45.035C13.226 44.2473 12.5195 43.5799 11.7006 43.0737C10.8805 42.572 9.97161 42.2311 9.02288 42.0694C8.02515 41.9014 7.00541 41.9233 6.02236 42.1242C4.7294 42.3684 3.51791 42.9295 2.49729 43.7567C1.51591 44.5599 0.779111 45.6198 0.36978 46.8172C-0.0590704 48.1525 -0.118625 49.5781 0.197379 50.9442C0.396839 52.1306 0.83745 53.264 1.49223 54.275C1.983 54.9999 2.5946 55.636 3.30061 56.1558L3.36664 56.1997L9.31633 55.0017L8.24891 49.7353L5.67389 50.2503H5.67755ZM19.5137 59.4172L9.70515 69.9245L16.99 76.6664L18.8461 74.676L13.7768 69.983L21.7256 61.4661L19.5137 59.4172ZM41.9149 72.0939C41.353 71.2819 40.6343 70.5894 39.8006 70.057C38.967 69.5245 38.0352 69.1628 37.0596 68.9928C36.0841 68.8228 35.0842 68.848 34.1185 69.0669C33.1528 69.2858 32.2406 69.6941 31.4351 70.2678C29.8094 71.4315 28.7055 73.1823 28.3593 75.1458C28.0131 77.1093 28.4522 79.1297 29.5827 80.7751C30.1324 81.5746 30.8324 82.2605 31.6442 82.7948C32.8164 83.5592 34.1827 83.9759 35.5838 83.9963C36.2073 84.0146 36.8236 83.9489 37.4288 83.8028C38.3751 83.5766 39.2683 83.1698 40.0589 82.6049C41.6852 81.4417 42.7899 79.6912 43.1367 77.7277C43.4836 75.7641 43.045 73.7434 41.9149 72.0976V72.0939ZM40.0332 77.123C39.897 77.9284 39.5742 78.6911 39.0905 79.3508C38.6317 79.9831 38.0163 80.4864 37.3041 80.8117C36.5582 81.1378 35.7295 81.2271 34.9308 81.0673C34.1213 80.9452 33.3687 80.5794 32.774 80.0191C32.2122 79.4772 31.8047 78.7967 31.5928 78.047C31.3796 77.2574 31.343 76.4308 31.4856 75.6256C31.6282 74.8204 31.9465 74.0561 32.4182 73.3868C32.8702 72.7613 33.4836 72.2691 34.1935 71.9624C34.7181 71.7433 35.283 71.6337 35.8515 71.6556C36.0936 71.663 36.3357 71.6849 36.5778 71.7287C37.3848 71.8492 38.1368 72.2071 38.742 72.755C39.305 73.2843 39.7132 73.9558 39.9231 74.6979C40.1432 75.4868 40.1799 76.3158 40.0332 77.123ZM63.4615 71.7652C63.0807 71.4734 62.6406 71.2677 62.1718 71.1623C61.703 71.057 61.2169 71.0546 60.7471 71.1553C60.9238 70.8893 61.0633 70.6006 61.1616 70.297C61.2969 69.8885 61.3453 69.4563 61.3036 69.0281C61.262 68.5999 61.1311 68.185 60.9195 67.8099C60.6016 67.1982 60.1156 66.689 59.5183 66.3417C58.8891 65.9924 58.172 65.8313 57.4531 65.8779C56.5728 65.951 55.7107 66.2103 54.9404 66.6522L50.524 68.9969L57.3027 81.6517L61.7191 79.307C62.5432 78.8828 63.2967 78.3346 63.953 77.6817C64.5294 77.117 64.9164 76.3886 65.0608 75.5964C65.1708 74.7162 64.9801 73.825 64.5216 73.0654C64.2691 72.5603 63.907 72.1175 63.4615 71.7689V71.7652ZM54.3315 69.9318L56.0629 69.0115C56.3417 68.8654 56.6425 68.7558 56.9542 68.6974C57.2371 68.6381 57.5308 68.6544 57.8052 68.7449C58.0987 68.8654 58.3298 69.0955 58.4582 69.384C58.588 69.5723 58.6614 69.7935 58.6699 70.0217C58.6783 70.25 58.6214 70.4759 58.5059 70.6732C58.248 71.0759 57.8889 71.4045 57.4641 71.6264L55.7328 72.5468L54.3315 69.9318ZM61.7632 76.0127C61.593 76.2344 61.3887 76.4279 61.1579 76.5861C60.9378 76.7431 60.7031 76.8819 60.4646 77.0134L58.6416 77.9812L56.9432 74.8111L58.77 73.8433C59.1001 73.668 59.4559 73.5402 59.819 73.4562C60.1814 73.3654 60.5617 73.3743 60.9195 73.4817C61.1121 73.5551 61.2882 73.6658 61.4374 73.8075C61.5867 73.9492 61.7061 74.119 61.7888 74.3071C61.9649 74.5993 62.0529 74.9317 62.0419 75.2713C62.0222 75.5399 61.9255 75.7972 61.7632 76.0127ZM65.2442 56.6635L75.2068 68.365L76.7474 65.5967L74.2238 62.821L76.6227 58.5005L80.3275 59.1506L81.9415 56.2362L66.6931 54.0558L65.2442 56.6635ZM73.956 58.0403L72.4044 60.8343L69.0774 57.1675L73.956 58.0403ZM81.1895 35.1339L81.1712 42.0292L52.2554 42.0365L52.248 45.0423H83.8893L83.9186 35.1339H81.1895ZM2.99982 33.4758L5.30341 28.5089L31.5745 40.5574L32.8253 37.8438L6.5579 25.8026L8.85048 20.8539L6.35616 19.7108L0.498165 32.3327L2.99616 33.4758H2.99982Z" fill="white"/>
</g>
<defs>
<clipPath id="clip0_132_1512">
<rect width="84" height="84" fill="white"/>
</clipPath>
</defs>
</svg>
