<svg width="60" height="60" viewBox="0 0 60 60" fill="none" xmlns="http://www.w3.org/2000/svg">
<g clip-path="url(#clip0_132_1276)">
<path d="M30.901 30.0209H28.7368V32.1757H30.8983V30.0209H30.901ZM17.3787 14.4365L14.9184 11.3557L15.8695 10.6017L19.9176 12.4278L21.8276 10.9148L17.321 9.04696C17.5438 8.53043 17.6197 7.96435 17.5438 7.4087C17.4461 6.80939 17.1902 6.2467 16.8023 5.77826C16.3198 5.19049 15.6373 4.79965 14.8844 4.68C14.4326 4.61222 13.9714 4.64248 13.5324 4.7687C12.99 4.93304 12.4844 5.20435 12.0494 5.56696L9.3455 7.70609L15.7464 15.7304L17.3787 14.4391V14.4365ZM13.7813 9.9313L12.1411 7.87565L13.2258 7.01478C13.3642 6.89418 13.5255 6.80247 13.7001 6.74511C13.8747 6.68775 14.0592 6.66591 14.2424 6.68087C14.4192 6.69844 14.5902 6.7531 14.7442 6.84122C14.8982 6.92935 15.0317 7.04896 15.1359 7.19217C15.2461 7.32297 15.329 7.47429 15.3798 7.63732C15.4306 7.80035 15.4484 7.97182 15.432 8.14174C15.4092 8.32734 15.3472 8.50605 15.2501 8.66611C15.153 8.82617 15.023 8.96397 14.8686 9.07043L13.7813 9.9313ZM31.8547 6.10957C31.8861 6.72 31.7289 7.32261 31.4014 7.83652C31.1132 8.24087 30.5708 8.44696 29.7874 8.44696C29.0171 8.45739 28.4774 8.23826 28.1839 7.83391C27.8558 7.31936 27.6973 6.71557 27.7307 6.10696L27.7385 0.0026087L25.5796 0L25.5717 6.43304C25.5612 7.15043 25.7289 7.86261 26.0643 8.49913C26.3939 9.11767 26.8938 9.62986 27.5053 9.97565C28.1823 10.3431 28.9431 10.53 29.7141 10.5183H29.7848C30.5813 10.5443 31.37 10.3565 32.0695 9.98087C32.6802 9.63625 33.1799 9.12601 33.5106 8.50956C33.8463 7.87264 34.0183 7.16277 34.011 6.44348L34.0189 0.0104348L31.8625 0.00782609L31.8547 6.11217V6.10957ZM41.8162 9.73826L42.9743 10.4948C43.3209 10.7184 43.6988 10.8898 44.0957 11.0035C44.5071 11.1235 44.9341 11.1678 45.3638 11.1339C45.8093 11.0974 46.2389 10.9565 46.6215 10.727C47.058 10.4517 47.4261 10.0816 47.6983 9.64435C47.8817 9.35217 48.0285 9.03913 48.128 8.71043C48.2577 8.29407 48.2939 7.85443 48.2342 7.42258C48.1744 6.99074 48.0201 6.57724 47.7822 6.2113C47.44 5.70631 46.9922 5.28095 46.4695 4.96435L43.6686 3.13826L38.101 11.5957L38.0302 11.7052L39.77 12.8426L41.8136 9.73826H41.8162ZM44.3918 5.82L45.4267 6.49565C45.5921 6.59513 45.735 6.7277 45.8463 6.88498C45.9576 7.04226 46.0349 7.22082 46.0733 7.40938C46.1117 7.59793 46.1104 7.79237 46.0695 7.9804C46.0285 8.16843 45.9488 8.34595 45.8355 8.50174C45.6898 8.74258 45.4707 8.93073 45.21 9.03868C44.9493 9.14663 44.6608 9.16873 44.3865 9.10174C44.1986 9.05945 44.0212 8.97957 43.8652 8.86696L42.8328 8.1913L44.3918 5.82ZM45.9245 17.9583L46.9045 19.7896L50.1953 18.047L50.8451 19.2652C51.0408 19.6271 51.2889 19.9585 51.5813 20.2487C51.8838 20.5501 52.239 20.7941 52.6293 20.9687C53.0371 21.151 53.4824 21.235 53.9289 21.2139C54.4446 21.1822 54.9464 21.0342 55.3962 20.7809C55.6998 20.6153 55.9793 20.409 56.2267 20.1678C56.5411 19.8649 56.7847 19.4968 56.9405 19.0898C57.0962 18.6827 57.1602 18.2466 57.128 17.8122C57.0716 17.2054 56.8839 16.6181 56.5778 16.0904L55.0058 13.1452L46.0398 17.8983L45.9245 17.9583ZM54.3481 15.8452L54.9272 16.933C55.0237 17.0994 55.0847 17.2838 55.1062 17.4747C55.1277 17.6656 55.1094 17.8588 55.0523 18.0423C54.9952 18.2258 54.9006 18.3956 54.7745 18.5409C54.6483 18.6863 54.4934 18.8041 54.3193 18.887C54.075 19.028 53.7919 19.0879 53.5111 19.0579C53.2303 19.0278 52.9664 18.9095 52.7577 18.72C52.6131 18.5935 52.497 18.4379 52.4171 18.2635L51.8355 17.1783L54.3481 15.8478V15.8452ZM4.05554 35.893L4.41187 37.6409L3.06777 37.9096C2.59091 37.5261 2.2634 36.9078 2.09309 36.073C1.97565 35.5253 2.00856 34.9563 2.18837 34.4256C2.36818 33.8949 2.68825 33.4223 3.11493 33.0574C3.59484 32.6539 4.17333 32.3839 4.79179 32.2748C5.37344 32.1496 5.97606 32.1574 6.5551 32.2957C7.09836 32.4213 7.59781 32.6898 8.00139 33.073C8.41192 33.4745 8.68665 33.9933 8.78742 34.5574C8.91056 35.0791 8.88174 35.6243 8.69834 36.1278C8.50183 36.6008 8.21636 37.032 7.85729 37.3983L7.75248 37.5026L9.39528 38.7365L9.4765 38.6478C9.97418 38.1072 10.3534 37.4693 10.59 36.7748C10.8543 35.9325 10.8851 35.0348 10.6791 34.1765C10.5421 33.4564 10.2566 32.7725 9.84069 32.1678C9.44731 31.6052 8.94268 31.1285 8.35772 30.767C7.77193 30.4086 7.12272 30.1651 6.44506 30.0496C5.7324 29.9296 5.00401 29.9452 4.30183 30.0887C3.37829 30.2632 2.51294 30.6639 1.78392 31.2548C1.08294 31.8285 0.556653 32.5856 0.264274 33.4409C-0.0420482 34.3946 -0.0845874 35.4129 0.14113 36.3887C0.283601 37.2361 0.598323 38.0457 1.06602 38.7678C1.41657 39.2856 1.85343 39.74 2.35772 40.1113L2.40489 40.1426L6.65467 39.287L5.89222 35.5252L4.05292 35.893H4.05554ZM13.9385 42.4409L6.9324 49.9461L12.1359 54.7617L13.4617 53.34L9.84069 49.9878L15.5184 43.9043L13.9385 42.4409ZM29.9394 51.4957C29.538 50.9156 29.0246 50.421 28.4292 50.0407C27.8337 49.6604 27.1682 49.402 26.4713 49.2806C25.7745 49.1591 25.0603 49.1771 24.3705 49.3335C23.6807 49.4899 23.0292 49.7815 22.4538 50.1913C21.2926 51.0225 20.504 52.2731 20.2568 53.6756C20.0095 55.0781 20.3232 56.5212 21.1307 57.6965C21.5233 58.2676 22.0233 58.7575 22.6031 59.1391C23.4404 59.6851 24.4164 59.9828 25.4171 59.9974C25.8625 60.0104 26.3027 59.9635 26.735 59.8591C27.4109 59.6976 28.0489 59.407 28.6136 59.0035C29.7753 58.1727 30.5643 56.9223 30.8121 55.5198C31.0598 54.1172 30.7466 52.6738 29.9394 51.4983V51.4957ZM28.5953 55.0878C28.498 55.6631 28.2674 56.208 27.9219 56.6791C27.5942 57.1308 27.1546 57.4903 26.6459 57.7226C26.1132 57.9556 25.5212 58.0193 24.9507 57.9052C24.3725 57.818 23.8349 57.5567 23.4101 57.1565C23.0089 56.7694 22.7178 56.2834 22.5665 55.7478C22.4141 55.1838 22.388 54.5934 22.4898 54.0183C22.5917 53.4431 22.8191 52.8972 23.156 52.4191C23.4788 51.9724 23.917 51.6208 24.4241 51.4017C24.7988 51.2452 25.2023 51.167 25.6084 51.1826C25.7813 51.1878 25.9542 51.2035 26.1272 51.2348C26.7036 51.3209 27.2407 51.5765 27.673 51.9678C28.0751 52.3459 28.3667 52.8256 28.5167 53.3557C28.6739 53.9191 28.7001 54.5113 28.5953 55.0878ZM45.3298 51.2609C45.0578 51.0524 44.7434 50.9055 44.4086 50.8302C44.0737 50.755 43.7265 50.7533 43.3909 50.8252C43.5171 50.6352 43.6168 50.429 43.687 50.2122C43.7837 49.9203 43.8182 49.6116 43.7885 49.3058C43.7587 48.9999 43.6652 48.7036 43.5141 48.4356C43.287 47.9987 42.9399 47.635 42.5132 47.387C42.0638 47.1374 41.5516 47.0224 41.0381 47.0557C40.4093 47.1078 39.7935 47.293 39.2433 47.6087L36.0887 49.2835L40.9307 58.3226L44.0852 56.6478C44.6739 56.3448 45.2121 55.9533 45.6809 55.487C46.0926 55.0836 46.369 54.5633 46.4721 53.9974C46.5507 53.3687 46.4145 52.7322 46.087 52.1896C45.9066 51.8288 45.648 51.5125 45.3298 51.2635V51.2609ZM38.8084 49.9513L40.0451 49.2939C40.2442 49.1896 40.459 49.1113 40.6817 49.0696C40.8838 49.0272 41.0936 49.0389 41.2896 49.1035C41.4992 49.1896 41.6643 49.3539 41.756 49.56C41.8487 49.6945 41.9011 49.8525 41.9072 50.0155C41.9132 50.1786 41.8726 50.3399 41.79 50.4809C41.6059 50.7685 41.3493 51.0033 41.0459 51.1617L39.8093 51.8191L38.8084 49.9513ZM44.1167 54.2948C43.9951 54.4531 43.8492 54.5914 43.6844 54.7043C43.5272 54.8165 43.3595 54.9156 43.1892 55.0096L41.887 55.7009L40.6739 53.4365L41.9787 52.7452C42.2145 52.62 42.4686 52.5287 42.728 52.4687C42.9869 52.4039 43.2585 52.4102 43.5141 52.487C43.6516 52.5393 43.7774 52.6184 43.884 52.7196C43.9906 52.8209 44.0759 52.9422 44.135 53.0765C44.2608 53.2852 44.3237 53.5226 44.3158 53.7652C44.3017 53.9571 44.2326 54.1409 44.1167 54.2948ZM46.6031 40.4739L53.7193 48.8322L54.8197 46.8548L53.0171 44.8722L54.7307 41.7861L57.3769 42.2504L58.5298 40.1687L47.6381 38.6113L46.6031 40.4739ZM52.8258 41.4574L51.7176 43.453L49.3411 40.8339L52.8258 41.4574ZM57.9927 25.0957L57.9796 30.0209L37.3254 30.0261L37.3202 32.173H59.921L59.942 25.0957H57.9927ZM2.14288 23.9113L3.78829 20.3635L22.5534 28.9696L23.4468 27.0313L4.68436 18.4304L6.32192 14.8957L4.54026 14.0791L0.355977 23.0948L2.14026 23.9113H2.14288Z" fill="#000D1B"/>
</g>
<defs>
<clipPath id="clip0_132_1276">
<rect width="60" height="60" fill="white"/>
</clipPath>
</defs>
</svg>
