<svg width="41" height="42" viewBox="0 0 41 42" fill="none" xmlns="http://www.w3.org/2000/svg">
<path d="M18.0552 2.00241C19.1355 0.665864 21.1732 0.665864 22.2536 2.00241L24.0551 4.23102C24.7264 5.06139 25.8241 5.41808 26.8552 5.1408L29.6226 4.39676C31.2823 3.95051 32.9308 5.1482 33.0192 6.86454L33.1667 9.72641C33.2217 10.7928 33.9001 11.7265 34.8973 12.1084L37.5735 13.133C39.1785 13.7475 39.8081 15.6854 38.8709 17.126L37.3081 19.528C36.7258 20.423 36.7258 21.5771 37.3081 22.4722L38.8709 24.8742C39.8081 26.3147 39.1785 28.2527 37.5735 28.8672L34.8973 29.8918C33.9001 30.2737 33.2217 31.2074 33.1667 32.2738L33.0192 35.1356C32.9308 36.852 31.2823 38.0497 29.6226 37.6034L26.8552 36.8594C25.8241 36.5821 24.7264 36.9388 24.0551 37.7691L22.2536 39.9978C21.1732 41.3341 19.1355 41.3341 18.0552 39.9978L16.2536 37.7691C15.5824 36.9388 14.4847 36.5821 13.4535 36.8594L10.6861 37.6034C9.02646 38.0497 7.37799 36.852 7.2895 35.1356L7.14201 32.2738C7.087 31.2074 6.4086 30.2737 5.41142 29.8918L2.7352 28.8672C1.13024 28.2527 0.500543 26.3147 1.4378 24.8742L3.00066 22.4722C3.58295 21.5771 3.58295 20.423 3.00066 19.528L1.4378 17.126C0.500543 15.6854 1.13024 13.7475 2.7352 13.133L5.41142 12.1084C6.4086 11.7265 7.087 10.7928 7.14201 9.72641L7.2895 6.86454C7.37799 5.1482 9.02646 3.95051 10.6861 4.39676L13.4535 5.1408C14.4847 5.41808 15.5824 5.06139 16.2536 4.23102L18.0552 2.00241Z" stroke="#6296CB" stroke-width="2"/>
<path d="M20.1544 32.3373C26.4157 32.3373 31.4915 27.2615 31.4915 21.0001C31.4915 14.7388 26.4157 9.66296 20.1544 9.66296C13.893 9.66296 8.8172 14.7388 8.8172 21.0001C8.8172 27.2615 13.893 32.3373 20.1544 32.3373Z" stroke="#6296CB" stroke-width="2"/>
<path d="M15.8354 21.3882L18.0005 23.7163C18.5343 24.2904 19.4433 24.2904 19.9772 23.7163L25.0131 18.3008" stroke="#6296CB" stroke-width="2" stroke-linecap="round" stroke-linejoin="round"/>
</svg>
