<svg width="40" height="40" viewBox="0 0 40 40" fill="none" xmlns="http://www.w3.org/2000/svg">
<path fill-rule="evenodd" clip-rule="evenodd" d="M18.9463 12.6329C18.9463 11.2292 20.0122 10.5274 21.0518 10.5274C22.0826 10.5274 23.1572 11.2292 23.1572 12.6329C23.1572 13.1417 22.859 13.5452 22.4773 13.9269C21.9334 14.4752 21.1965 14.9533 20.4684 15.4402C19.4288 16.1332 18.398 16.8438 17.7356 17.6597C17.1698 18.3528 16.8408 19.1248 16.8408 20.0021C16.8408 20.5855 17.3101 21.0548 17.8935 21.0548H24.21C24.789 21.0548 25.2627 20.5811 25.2627 20.0021C25.2627 19.4231 24.789 18.9493 24.21 18.9493H19.3981C19.4683 18.866 19.5472 18.787 19.6262 18.7081C20.1701 18.1598 20.907 17.6816 21.6352 17.1948C22.6747 16.5017 23.7056 15.7911 24.3679 14.9752C24.9338 14.2822 25.2627 13.5101 25.2627 12.6329C25.2627 9.82554 23.1178 8.42188 21.0518 8.42188C18.9726 8.42188 16.8408 9.82554 16.8408 12.6329C16.8408 13.2119 17.3145 13.6856 17.8935 13.6856C18.4725 13.6856 18.9463 13.2119 18.9463 12.6329Z" fill="#6296CB"/>
<path fill-rule="evenodd" clip-rule="evenodd" d="M30.5264 17.8967V20.0022C30.5264 20.5812 31.0002 21.0549 31.5792 21.0549C32.1582 21.0549 32.6319 20.5812 32.6319 20.0022V17.8967C33.2109 17.8967 33.6847 17.4229 33.6847 16.8439C33.6847 16.2649 33.2109 15.7912 32.6319 15.7912V9.47471C32.6319 9.01852 32.338 8.61058 31.8994 8.47021C31.4651 8.33423 30.987 8.49215 30.7238 8.86499L25.4601 16.2342C25.2276 16.5544 25.1969 16.9755 25.3811 17.3264C25.561 17.6773 25.9207 17.8967 26.3154 17.8967H30.5264ZM30.5264 15.7912V12.7602L28.3595 15.7912H30.5264ZM30.5834 37.8374L30.6098 37.8111H30.6142L35.5094 32.9114C35.7726 32.6483 35.8779 32.271 35.7901 31.9113C35.7156 31.6131 35.5357 31.2446 35.2375 30.841C34.7374 30.1699 33.8601 29.319 32.8205 28.4855C31.3116 27.2749 29.4693 26.0818 28.0569 25.472C27.3155 25.1518 26.6707 24.9939 26.197 24.9939C25.8154 24.9939 25.4645 25.2001 25.2759 25.5335L22.3545 30.7972C21.5474 31.2534 20.5648 31.2534 19.5252 30.9902C18.1961 30.6524 16.7881 29.8804 15.4415 28.8584C12.9544 26.9722 10.6953 24.2263 9.65136 21.59C9.08113 20.1513 8.85303 18.7564 9.27852 17.6028L14.4677 14.7209C14.801 14.5367 15.0072 14.1857 15.0072 13.7997C15.0072 13.3304 14.8449 12.6812 14.5291 11.9443C13.9194 10.5318 12.7263 8.68515 11.5156 7.17621C10.6778 6.14102 9.83121 5.25934 9.16008 4.76367C8.75653 4.4654 8.38368 4.28555 8.08979 4.21098C7.7301 4.11887 7.34848 4.22414 7.08968 4.48733L2.19003 9.38259C0.387207 11.1898 -0.288305 14.37 0.110861 18.0019C0.667939 23.1034 3.27787 29.0996 7.08968 32.9114C10.8927 36.7145 16.8758 39.32 21.9729 39.8859C25.5961 40.2894 28.7762 39.6271 30.5878 37.833L30.5834 37.8374ZM29.9079 38.1138H29.9035L29.8465 38.1401L29.9079 38.1138ZM29.1271 36.3197L29.1052 36.3416C27.6621 37.7672 25.0916 38.1138 22.2053 37.7936C17.5426 37.276 12.0595 34.9029 8.57669 31.4201C5.08947 27.9328 2.71641 22.441 2.20319 17.7695C1.88737 14.8832 2.24267 12.3127 3.68142 10.874L8.01522 6.53579C8.05031 6.5665 8.08979 6.5972 8.12927 6.6323C8.65126 7.07533 9.26097 7.73768 9.87069 8.49653C10.8138 9.66771 11.7481 11.0582 12.3403 12.2382C12.5289 12.611 12.6868 12.9488 12.7877 13.247L7.94065 15.9359C7.74765 16.0412 7.59851 16.2035 7.50201 16.4009C6.6949 18.0853 6.83088 20.1952 7.69063 22.3664C8.86619 25.3229 11.3796 28.4197 14.1694 30.5384C16.0907 31.9947 18.1479 32.986 19.9902 33.2185C21.3807 33.394 22.6615 33.1483 23.7362 32.4202C23.8722 32.328 23.9819 32.2008 24.0608 32.0605L26.7541 27.2091C27.048 27.31 27.3901 27.4723 27.763 27.6609C28.9429 28.253 30.3334 29.1874 31.5002 30.1261C32.2591 30.7358 32.9258 31.3455 33.3688 31.8719C33.3995 31.9113 33.4302 31.9464 33.4609 31.9815L29.1271 36.3197Z" fill="#6296CB"/>
<path fill-rule="evenodd" clip-rule="evenodd" d="M13.9896 5.51375C16.5205 3.38633 19.7841 2.10549 23.3415 2.10549C31.373 2.10549 37.8957 8.62812 37.8957 16.6597C37.8957 20.2171 36.6148 23.4806 34.4874 26.0116C34.1145 26.459 34.1716 27.1213 34.6146 27.4942C35.062 27.8714 35.7244 27.8144 36.0972 27.367C38.5317 24.4719 40.0011 20.7347 40.0011 16.6597C40.0011 7.46572 32.5354 0 23.3415 0C19.2665 0 15.5292 1.46946 12.6342 3.90393C12.1867 4.27678 12.1297 4.93913 12.507 5.38655C12.8798 5.82958 13.5422 5.8866 13.9896 5.51375Z" fill="#6296CB"/>
</svg>
