<svg width="44" height="40" viewBox="0 0 44 40" fill="none" xmlns="http://www.w3.org/2000/svg">
<path d="M22 10.6667C18.639 10.6667 15.9036 13.4187 15.9036 16.8C15.9036 20.1813 18.639 22.9333 22 22.9333C25.361 22.9333 28.0964 20.1813 28.0964 16.8C28.0964 13.4187 25.361 10.6667 22 10.6667ZM22 21.3333C19.5137 21.3333 17.494 19.3013 17.494 16.8C17.494 14.2987 19.5137 12.2667 22 12.2667C24.4863 12.2667 26.506 14.2987 26.506 16.8C26.506 19.3013 24.4863 21.3333 22 21.3333ZM42.6429 15.232C42.7966 15.3867 42.9981 15.4667 43.2048 15.4667C43.3055 15.4667 43.4116 15.4453 43.507 15.408C43.8039 15.2853 44 14.992 44 14.6667V2.39467C44 1.07733 42.9345 0 41.6198 0H31.0067C29.6973 0 28.6265 1.072 28.6265 2.39467V6.4H15.3735V4.528C15.3735 3.21067 14.308 2.13333 12.9933 2.13333H2.38024C1.07084 2.13333 0 3.20533 0 4.528V16.8C0 17.1253 0.196145 17.4133 0.493012 17.5413C0.588434 17.5787 0.694458 17.6 0.795181 17.6C1.00193 17.6 1.20337 17.52 1.35711 17.3653L3.18072 15.5307V32H0.795181C0.355181 32 0 32.3573 0 32.8V35.008C0 37.76 2.22651 40 4.96193 40H39.0328C41.7682 40 43.9947 37.76 43.9947 35.008V32.8C43.9947 32.3573 43.6395 32 43.1995 32H40.814V13.3973L42.6429 15.232ZM30.2169 2.39467C30.2169 1.95733 30.572 1.6 31.0067 1.6H41.6251C42.0598 1.6 42.4149 1.95733 42.4149 2.39467V12.736L40.5913 10.9013C40.5542 10.864 40.5118 10.832 40.4694 10.8C40.4588 10.7947 40.4482 10.7893 40.4376 10.784C40.4058 10.7627 40.3687 10.7413 40.3316 10.7307C40.3157 10.7253 40.2998 10.72 40.2839 10.7147C40.252 10.704 40.2202 10.6933 40.1831 10.6827C40.1301 10.672 40.0771 10.6667 40.0241 10.6667H31.0067C30.572 10.6667 30.2169 10.3093 30.2169 9.872V2.39467ZM1.59036 4.528C1.59036 4.09067 1.94554 3.73333 2.38024 3.73333H12.9986C13.4333 3.73333 13.7884 4.09067 13.7884 4.528V12.0107C13.7884 12.448 13.4333 12.8053 12.9986 12.8053H3.9759C3.92289 12.8053 3.86988 12.8107 3.81687 12.8213C3.78506 12.8267 3.74795 12.8427 3.71614 12.8533C3.70024 12.8587 3.68434 12.864 3.66843 12.8693C3.63133 12.8853 3.59952 12.9067 3.56241 12.9227C3.55181 12.928 3.5412 12.9333 3.5306 12.9387C3.48819 12.9653 3.44578 13.0027 3.40867 13.04L1.58506 14.8747V4.528H1.59036ZM42.4096 35.008C42.4096 36.88 40.8988 38.4 39.0381 38.4H4.96193C3.10121 38.4 1.59036 36.88 1.59036 35.008V33.6H15.6386C15.787 33.6 15.9036 33.7173 15.9036 33.8667C15.9036 34.896 16.7359 35.7333 17.759 35.7333H26.241C27.2641 35.7333 28.0964 34.896 28.0964 33.8667C28.0964 33.7173 28.213 33.6 28.3614 33.6H42.4096V35.008ZM30.747 32H28.3614C27.3383 32 26.506 32.8373 26.506 33.8667C26.506 34.016 26.3894 34.1333 26.241 34.1333H17.759C17.6106 34.1333 17.494 34.016 17.494 33.8667C17.494 32.8373 16.6617 32 15.6386 32H13.253V30.6773C13.253 28.1707 15.2781 26.1333 17.7696 26.1333H26.2304C28.7219 26.1333 30.747 28.1707 30.747 30.6773V32ZM32.3373 32V30.6773C32.3373 27.2907 29.5966 24.5333 26.2304 24.5333H17.7696C14.4034 24.5333 11.6627 27.2907 11.6627 30.6773V32H4.77108V14.4H12.9933C14.3027 14.4 15.3735 13.328 15.3735 12.0053V8H28.6265V9.872C28.6265 11.1893 29.692 12.2667 31.0067 12.2667H39.2289V32H32.3373ZM33.9277 6.13867C33.9277 5.696 34.2882 5.33333 34.7282 5.33333C35.1682 5.33333 35.5287 5.696 35.5287 6.13867C35.5287 6.58133 35.1682 6.944 34.7282 6.944C34.2882 6.944 33.9277 6.58133 33.9277 6.13867ZM4.77108 8.272C4.77108 7.82933 5.13157 7.46667 5.57157 7.46667C6.01157 7.46667 6.37205 7.82933 6.37205 8.272C6.37205 8.71467 6.01157 9.07733 5.57157 9.07733C5.13157 9.07733 4.77108 8.71467 4.77108 8.272ZM9.01205 8.272C9.01205 7.82933 9.37253 7.46667 9.81253 7.46667C10.2525 7.46667 10.613 7.82933 10.613 8.272C10.613 8.71467 10.2525 9.07733 9.81253 9.07733C9.37253 9.07733 9.01205 8.71467 9.01205 8.272ZM37.6386 6.13867C37.6386 5.696 37.999 5.33333 38.439 5.33333C38.879 5.33333 39.2395 5.696 39.2395 6.13867C39.2395 6.58133 38.879 6.944 38.439 6.944C37.999 6.944 37.6386 6.58133 37.6386 6.13867Z" fill="#6296CB"/>
</svg>
