<svg width="42" height="42" viewBox="0 0 42 42" fill="none" xmlns="http://www.w3.org/2000/svg">
<path d="M21 41C32.0457 41 41 32.0457 41 21C41 9.9543 32.0457 1 21 1C9.9543 1 1 9.9543 1 21C1 32.0457 9.9543 41 21 41Z" stroke="#6296CB" stroke-width="2" stroke-linecap="round" stroke-linejoin="round"/>
<path d="M36.5 8.33333C36.3333 8.41667 36.1666 8.41667 36 8.41667C35.0833 8.66667 34.1666 8.5 33.3333 8.08333C33.0833 7.91667 32.8333 7.75 32.5833 7.83333C32.4166 7.91667 32.3333 8 32.25 8.16667C31.25 9.41667 29.5833 9.75 28.1666 9C27.9166 8.83333 27.5833 8.66667 27.3333 8.75C27.0833 8.83333 26.9166 9.08333 26.75 9.33333C26.1666 10.25 25.75 11.25 25.5833 12.25C25.4166 13.3333 25.75 14.4167 26.5 15.1667C26.75 15.3333 26.9166 15.5 27.0833 15.6667C27.25 15.9167 27.4166 16.1667 27.5 16.4167C28.25 17.8333 30 18.3333 31.4166 17.5833C31.5833 17.5 31.75 17.3333 31.9166 17.25C32.0833 17 32.4166 16.75 32.6666 16.6667C33.25 16.5 33.6666 17 34.0833 17.5C34.5833 18 34.9166 18.6667 34.9166 19.4167C34.8333 20.0833 34.4166 20.75 34.75 21.25C34.9166 21.4167 35.0833 21.5833 35.3333 21.75C36.25 22.4167 36.0833 23.8333 36.0833 24.9167C36.0833 25.75 36.25 26.5833 36.5 27.4167C36.8333 28.5 37.5833 29.4167 38.5833 29.9167C38.6666 30 38.75 30 38.9166 30M22.25 1C22.3333 1.66667 22.0833 2.33333 21.5 2.66667C20.9166 3.08333 20.1666 3.25 19.5 3.25C18.9166 3.16667 18.3333 3.16667 17.75 3.33333C16.8333 3.75 16.75 5.25 15.75 5.75C15.5 5.83333 15.1666 5.83333 14.9166 6C14 6.41667 14.0833 7.75 13.3333 8.5C12.6666 9.08333 11.8333 9.25 11 9.08333C10.1666 8.91667 9.33331 8.83333 8.49998 9C7.66665 9.25 6.99998 10.1667 7.33331 10.9167C7.66665 11.6667 8.66665 11.75 9.41665 11.6667C10.1666 11.5833 11.0833 11.5 11.6666 12C12.25 12.5 12.1666 13.9167 12.9166 14.5C13.5833 14.9167 14.3333 14.9167 15 14.5C15.6666 14.0833 16.3333 13.9167 17.0833 13.8333C19 13.9167 19.75 16.5 21.5833 17.0833C22.3333 17.3333 23.1666 17.1667 23.8333 17.4167C25.1666 17.9167 25.6666 19.75 25.0833 21.0833C24.8333 21.5833 24.5833 22.0833 24.4166 22.5833C24.25 23.25 24.5 23.9167 24.3333 24.5833C24 25.8333 22.25 26.4167 22.25 27.75C22.3333 28.0833 22.3333 28.5 22.25 28.8333C22.0833 29.0833 21.8333 29.3333 21.5833 29.5C20.1666 30.4167 19.0833 31.75 18.4166 33.3333C18.3333 33.5833 18.25 33.75 18.25 34C18.3333 34.3333 18.4166 34.5833 18.6666 34.8333C19 35.25 19.25 35.75 19.25 36.3333C19.25 36.9167 18.8333 37.4167 18.25 37.4167C17.9166 37.3333 17.5833 37.0833 17.4166 36.8333C17 36.4167 16.5833 35.9167 16.3333 35.3333C16.1666 34.6667 16.25 33.8333 15.9166 33.25C15.5833 32.9167 15.3333 32.5 15 32.1667C13.9166 30.75 15.25 28.5833 14.5833 27C14 25.6667 12.25 25 12 23.5833C12 23 12 22.5 12.1666 22C12.1666 20.5 11.8333 19 11.0833 17.75C10.9166 17.3333 10.6666 17 10.4166 16.75C9.91665 16.4167 9.16665 16.5 8.66665 16.1667C8.24998 15.8333 7.91665 15.4167 7.66665 14.9167C7.33331 14.25 6.83331 13.75 6.16665 13.4167C5.49998 13.0833 4.74998 13.1667 4.16665 13.5C3.83331 13.75 3.66665 14.0833 3.33331 14.25C2.99998 14.5 2.49998 14.5833 2.08331 14.5833" stroke="#6296CB" stroke-width="2" stroke-linecap="round" stroke-linejoin="round"/>
</svg>
