<svg width="19" height="18" viewBox="0 0 19 18" fill="none" xmlns="http://www.w3.org/2000/svg">
<path d="M14.3781 18H4.52189C2.27665 18 0.449982 16.1734 0.449982 13.9281V4.07188C0.449982 1.82664 2.27665 0 4.52189 0H14.3781C16.6234 0 18.45 1.82664 18.45 4.07188V13.9281C18.45 16.1734 16.6234 18 14.3781 18ZM4.52189 1.78858C3.26607 1.78858 2.23859 2.81607 2.23859 4.07188V13.9281C2.23859 15.1839 3.26607 16.2114 4.52189 16.2114H14.3781C15.6339 16.2114 16.6614 15.1839 16.6614 13.9281V4.07188C16.6614 2.81607 15.6339 1.78858 14.3781 1.78858H4.52189ZM9.46903 13.6998C6.91935 13.6998 4.8263 11.6068 4.8263 9.05708C4.8263 6.5074 6.91935 4.41438 9.46903 4.41438C12.0187 4.41438 14.1117 6.5074 14.1117 9.05708C14.1117 11.6068 12.0187 13.6998 9.46903 13.6998ZM9.46903 6.20296C7.90878 6.20296 6.61491 7.49683 6.61491 9.05708C6.61491 10.6173 7.90878 11.9112 9.46903 11.9112C11.0293 11.9112 12.3231 10.6173 12.3231 9.05708C12.3231 7.45877 11.0293 6.20296 9.46903 6.20296ZM14.302 3.23467C13.6551 3.23467 13.1223 3.76744 13.1223 4.41438C13.1223 5.06131 13.6551 5.59408 14.302 5.59408C14.9489 5.59408 15.4817 5.06131 15.4817 4.41438C15.4817 3.76744 14.9489 3.23467 14.302 3.23467Z" fill="white"/>
</svg>
