<svg width="20" height="18" viewBox="0 0 20 18" fill="none" xmlns="http://www.w3.org/2000/svg">
<path d="M19.45 11.0471V18H15.4076V11.5059C15.4076 9.88236 14.8048 8.75294 13.3509 8.75294C12.2162 8.75294 11.5779 9.49412 11.2588 10.2353C11.1524 10.4824 11.117 10.8706 11.117 11.2235V18H7.07456C7.07456 18 7.14548 6.98824 7.07456 5.85883H11.117V7.58824L11.0815 7.62353H11.117V7.58824C11.6489 6.77647 12.6063 5.57647 14.7693 5.57647C17.4642 5.57647 19.45 7.30588 19.45 11.0471ZM2.85487 0C1.47194 0 0.549988 0.91765 0.549988 2.08236C0.549988 3.24706 1.43649 4.16471 2.78395 4.16471H2.8194C4.23779 4.16471 5.12428 3.24706 5.12428 2.08236C5.08882 0.91765 4.23779 0 2.85487 0ZM0.79821 18H4.84061V5.85883H0.79821V18Z" fill="white"/>
</svg>
