<svg width="25" height="25" viewBox="0 0 25 25" fill="none" xmlns="http://www.w3.org/2000/svg">
<path d="M8.49461 3.9132C5.22805 5.42227 3.02995 8.79413 3.00565 12.3864C3.00288 12.8014 3.05786 13.408 2.96345 13.798C2.58808 15.3485 0.0462214 15.3868 0.00523164 13.1311C-0.00778305 12.4152 -0.00165918 11.6944 0.0839717 10.9827C0.827316 4.80477 6.04263 0.123625 12.2224 0C14.9147 0.00950964 17.7742 0.768533 19.8633 2.52021C20.2943 2.13043 20.6917 1.71351 21.1036 1.30463C21.4947 0.916465 22.068 0.216561 22.6754 0.758287C23.0594 1.10081 22.9377 2.24708 22.9379 2.73233L22.9377 6.03492C22.9378 8.04551 22.326 7.85235 20.5209 7.85141L16.8941 7.85245C16.2838 7.8536 15.4697 8.00178 15.9104 7.0529C16.3201 6.17099 17.0903 5.43088 17.7553 4.73979C15.0587 2.80895 11.5135 2.5246 8.49461 3.9132ZM7.26622 20.2292C13.0986 24.5646 21.6847 20.2122 21.9851 12.8255C22.0328 11.6529 21.7686 10.1612 23.4585 10.0456C24.4122 10.0348 24.9353 10.7692 24.9818 11.662C25.4902 21.415 15.2568 28.2151 6.60365 23.4326C6.1057 23.1574 5.57755 22.8455 5.15424 22.4632C4.69495 22.9128 3.69816 23.9923 3.26276 24.2702C2.84107 24.5394 2.26686 24.3499 2.15283 23.8552C2.07657 23.5246 2.1039 23.1489 2.10416 22.8103V21.6439L2.105 19.286C2.10359 17.2965 2.09545 17.1037 4.35954 17.1044L7.9241 17.1038C8.68521 17.1035 9.63729 16.9195 9.01786 18.0839C8.57077 18.9242 7.89891 19.5422 7.26622 20.2292Z" fill="#6296CB"/>
</svg>
