<svg width="39" height="32" viewBox="0 0 39 32" fill="none" xmlns="http://www.w3.org/2000/svg">
<path d="M16 17.0169C16.5617 17.0169 17.0171 16.5616 17.0171 15.9998C17.0171 15.4381 16.5617 14.9827 16 14.9827C15.4382 14.9827 14.9828 15.4381 14.9828 15.9998C14.9828 16.5616 15.4382 17.0169 16 17.0169Z" fill="#6296CB"/>
<path d="M18.6399 28.7544H18.5333C18.3352 28.7216 18.1581 28.612 18.0404 28.4493C17.9227 28.2867 17.8739 28.0842 17.9047 27.8858C17.9861 27.3278 18.2112 26.8006 18.5578 26.3558C18.9044 25.911 19.3607 25.5639 19.8818 25.3487C19.9744 25.3106 20.0735 25.2912 20.1736 25.2915C20.2736 25.2918 20.3727 25.3118 20.465 25.3504C20.5573 25.3889 20.6411 25.4453 20.7117 25.5162C20.7822 25.5872 20.8381 25.6713 20.8761 25.7639C20.9142 25.8564 20.9336 25.9556 20.9333 26.0556C20.933 26.1557 20.913 26.2547 20.8744 26.347C20.8359 26.4394 20.7795 26.5232 20.7086 26.5937C20.6376 26.6643 20.5534 26.7202 20.4609 26.7582C20.1851 26.8718 19.9435 27.0551 19.7599 27.2902C19.5762 27.5253 19.4568 27.804 19.4133 28.0991C19.3872 28.2842 19.294 28.4532 19.1514 28.574C19.0088 28.6948 18.8268 28.759 18.6399 28.7544Z" fill="#6296CB"/>
<path d="M16.0228 31.9999H15.9771C15.197 31.9972 14.4439 31.7147 13.8545 31.2036C13.2652 30.6926 12.8788 29.987 12.7657 29.2152L12.6057 28.099C12.5622 27.8039 12.4427 27.5251 12.2591 27.29C12.0754 27.055 11.8339 26.8716 11.5581 26.758L11.5085 26.7352C11.2353 26.6265 10.9388 26.5897 10.6473 26.6284C10.3558 26.6671 10.0792 26.7799 9.84378 26.9561L8.94474 27.6304C8.31907 28.0963 7.54699 28.3221 6.76888 28.2669C5.99078 28.2117 5.25834 27.879 4.70475 27.3295L4.66665 27.2952C4.11836 26.7407 3.7869 26.0081 3.73238 25.2302C3.67787 24.4524 3.90391 23.6807 4.36951 23.0552L5.0438 22.1561C5.22139 21.9139 5.33359 21.63 5.36959 21.3318C5.40559 21.0336 5.36417 20.7312 5.24933 20.4537C5.13449 20.1762 4.9501 19.9329 4.71393 19.7473C4.47775 19.5618 4.19776 19.4402 3.90094 19.3942L2.78856 19.2342C2.01606 19.1219 1.30957 18.7359 0.797754 18.1465C0.285939 17.5571 0.00283692 16.8034 0 16.0228L0 15.9771C0.00270161 15.197 0.285267 14.4439 0.796312 13.8545C1.30736 13.2652 2.01294 12.8788 2.78475 12.7657L3.89713 12.6057C4.19293 12.5628 4.47246 12.4436 4.70825 12.26C4.94403 12.0763 5.12794 11.8344 5.24189 11.5581C5.24341 11.5454 5.24341 11.5326 5.24189 11.52C5.35413 11.2459 5.39347 10.9475 5.35609 10.6538C5.3187 10.36 5.20586 10.081 5.02856 9.84379L4.35427 8.94474C3.8884 8.31907 3.66254 7.54699 3.71777 6.76889C3.773 5.99078 4.10565 5.25834 4.65522 4.70475L4.6857 4.67427C5.23904 4.12313 5.97198 3.78916 6.75096 3.73321C7.52994 3.67727 8.30309 3.90309 8.9295 4.36951L9.82854 5.0438C10.0676 5.22181 10.3489 5.3347 10.6447 5.37143C10.9405 5.40816 11.2408 5.36746 11.5162 5.25332H11.5543C11.8276 5.13876 12.0667 4.95542 12.2483 4.72111C12.4299 4.48681 12.5477 4.20951 12.5904 3.91618L12.7504 2.79999C12.8606 2.02281 13.2477 1.31156 13.8406 0.797096C14.4334 0.282634 15.1921 -0.000424515 15.9771 4.77876e-07H16.0228C16.8029 0.00270209 17.556 0.285267 18.1454 0.796312C18.7347 1.30736 19.1211 2.01294 19.2342 2.78476L19.3942 3.90094C19.4225 4.10301 19.3694 4.30804 19.2465 4.47093C19.1236 4.63382 18.9411 4.74122 18.739 4.76951C18.5369 4.7978 18.3319 4.74466 18.169 4.62178C18.0061 4.4989 17.8987 4.31634 17.8704 4.11428L17.7104 3.0019C17.6514 2.59483 17.449 2.22222 17.1396 1.95121C16.8301 1.68021 16.4341 1.52863 16.0228 1.52381H15.9771C15.5632 1.52501 15.1635 1.67494 14.8509 1.94627C14.5383 2.21761 14.3336 2.59226 14.2742 3.0019L14.1142 4.11428C14.0302 4.6727 13.8032 5.1999 13.4553 5.64474C13.1074 6.08958 12.6505 6.43695 12.1288 6.65314C11.6071 6.86933 11.0384 6.947 10.4778 6.87862C9.91728 6.81023 9.38391 6.59811 8.9295 6.26284L8.03045 5.58856C7.69791 5.34196 7.28809 5.22253 6.87513 5.25188C6.46217 5.28123 6.07336 5.45741 5.77903 5.74856L5.74856 5.77903C5.45741 6.07336 5.28122 6.46218 5.25188 6.87513C5.22253 7.28809 5.34196 7.69791 5.58856 8.03046L6.26284 8.9295C6.59538 9.38253 6.8052 9.91381 6.87194 10.4718C6.93869 11.0298 6.8601 11.5956 6.64379 12.1143V12.1524C6.428 12.6703 6.08146 13.1234 5.63808 13.4673C5.19469 13.8112 4.66964 14.0341 4.11427 14.1142L3.0019 14.2743C2.59225 14.3336 2.21761 14.5383 1.94627 14.8509C1.67494 15.1635 1.525 15.5632 1.52381 15.9771V16.0228C1.52579 16.4365 1.676 16.8358 1.94719 17.1482C2.21838 17.4607 2.59258 17.6655 3.0019 17.7257L4.11427 17.9047C4.67269 17.9888 5.1999 18.2158 5.64474 18.5636C6.08958 18.9115 6.43695 19.3685 6.65314 19.8902C6.86933 20.4119 6.947 20.9806 6.87861 21.5411C6.81023 22.1017 6.59811 22.635 6.26284 23.0895L5.58856 23.9885C5.34196 24.3211 5.22253 24.7309 5.25188 25.1438C5.28122 25.5568 5.45741 25.9456 5.74856 26.2399L5.78284 26.2742C6.07702 26.5645 6.46543 26.7399 6.87773 26.7685C7.29002 26.7972 7.69895 26.6772 8.03045 26.4304L8.9295 25.7561C9.38231 25.42 9.9143 25.2066 10.4739 25.1366C11.0334 25.0666 11.6016 25.1424 12.1233 25.3567C12.6449 25.5709 13.1023 25.9164 13.4512 26.3595C13.8 26.8025 14.0284 27.3283 14.1142 27.8856L14.2742 28.998C14.3336 29.4077 14.5383 29.7823 14.8509 30.0536C15.1635 30.325 15.5632 30.4749 15.9771 30.4761H16.0228C16.4367 30.4749 16.8364 30.325 17.149 30.0536C17.4616 29.7823 17.6663 29.4077 17.7257 28.998L17.9047 27.8856C17.9187 27.7856 17.9523 27.6893 18.0035 27.6022C18.0548 27.5151 18.1226 27.439 18.2033 27.3781C18.2839 27.3173 18.3758 27.2729 18.4736 27.2476C18.5714 27.2222 18.6732 27.2164 18.7733 27.2304C18.8733 27.2444 18.9696 27.278 19.0567 27.3292C19.1438 27.3805 19.2199 27.4483 19.2808 27.529C19.3416 27.6096 19.386 27.7015 19.4113 27.7993C19.4367 27.8971 19.4425 27.9989 19.4285 28.099L19.2685 29.2152C19.1545 29.9928 18.7632 30.7031 18.1667 31.2148C17.5702 31.7266 16.8088 32.0055 16.0228 31.9999Z" fill="#6296CB"/>
<path d="M20.1904 6.71999C20.0883 6.71979 19.9872 6.69907 19.8933 6.65904C19.3702 6.44277 18.9121 6.09469 18.5636 5.64872C18.2151 5.20274 17.9881 4.67409 17.9047 4.11428C17.8907 4.01423 17.8965 3.9124 17.9219 3.8146C17.9472 3.7168 17.9916 3.62495 18.0525 3.5443C18.1133 3.46364 18.1894 3.39576 18.2765 3.34453C18.3636 3.2933 18.4599 3.25972 18.56 3.24571C18.762 3.21743 18.9671 3.27057 19.1299 3.39345C19.2928 3.51633 19.4002 3.69888 19.4285 3.90095C19.472 4.19606 19.5915 4.47481 19.7751 4.70988C19.9588 4.94495 20.2003 5.12828 20.4761 5.2419H20.5142C20.6763 5.31092 20.8094 5.43397 20.891 5.59011C20.9726 5.74624 20.9975 5.92582 20.9616 6.09827C20.9257 6.27072 20.8311 6.4254 20.694 6.53597C20.5568 6.64655 20.3856 6.70619 20.2095 6.70475L20.1904 6.71999ZM16 22.8571C14.1813 22.8571 12.4372 22.1346 11.1512 20.8487C9.86528 19.5627 9.14284 17.8186 9.14284 16C9.14284 14.1813 9.86528 12.4372 11.1512 11.1512C12.4372 9.86529 14.1813 9.14284 16 9.14284C16.202 9.14284 16.3958 9.22311 16.5387 9.366C16.6816 9.50888 16.7619 9.70268 16.7619 9.90474C16.7619 10.1068 16.6816 10.3006 16.5387 10.4435C16.3958 10.5864 16.202 10.6666 16 10.6666C14.5855 10.6666 13.2289 11.2285 12.2287 12.2287C11.2285 13.2289 10.6666 14.5855 10.6666 16C10.6666 17.4145 11.2285 18.771 12.2287 19.7712C13.2289 20.7714 14.5855 21.3333 16 21.3333C16.202 21.3333 16.3958 21.4136 16.5387 21.5564C16.6816 21.6993 16.7619 21.8931 16.7619 22.0952C16.7619 22.2973 16.6816 22.4911 16.5387 22.6339C16.3958 22.7768 16.202 22.8571 16 22.8571ZM29.7142 19.8095C28.9608 19.8095 28.2242 19.5861 27.5978 19.1675C26.9713 18.7489 26.483 18.1539 26.1947 17.4578C25.9063 16.7617 25.8309 15.9957 25.9779 15.2568C26.1249 14.5178 26.4877 13.839 27.0205 13.3062C27.5532 12.7735 28.232 12.4106 28.971 12.2637C29.71 12.1167 30.4759 12.1921 31.172 12.4804C31.8681 12.7688 32.4631 13.257 32.8817 13.8835C33.3003 14.51 33.5237 15.2465 33.5237 16C33.5237 17.0103 33.1224 17.9793 32.4079 18.6937C31.6935 19.4081 30.7246 19.8095 29.7142 19.8095ZM29.7142 13.7143C29.2621 13.7143 28.8202 13.8483 28.4443 14.0995C28.0685 14.3506 27.7755 14.7076 27.6025 15.1253C27.4295 15.5429 27.3842 16.0025 27.4724 16.4459C27.5606 16.8893 27.7783 17.2965 28.098 17.6162C28.4176 17.9359 28.8249 18.1536 29.2683 18.2418C29.7117 18.33 30.1713 18.2847 30.5889 18.1117C31.0066 17.9387 31.3635 17.6457 31.6147 17.2698C31.8659 16.894 31.9999 16.452 31.9999 16C31.9999 15.3938 31.7591 14.8124 31.3304 14.3837C30.9018 13.9551 30.3204 13.7143 29.7142 13.7143ZM34.2856 28.9523C33.5322 28.9523 32.7956 28.7289 32.1692 28.3103C31.5427 27.8917 31.0544 27.2967 30.7661 26.6006C30.4778 25.9045 30.4023 25.1386 30.5493 24.3996C30.6963 23.6606 31.0591 22.9818 31.5919 22.4491C32.1247 21.9163 32.8035 21.5535 33.5424 21.4065C34.2814 21.2595 35.0474 21.3349 35.7435 21.6233C36.4396 21.9116 37.0345 22.3999 37.4531 23.0263C37.8717 23.6528 38.0951 24.3894 38.0951 25.1428C38.0951 26.1531 37.6938 27.1221 36.9794 27.8365C36.2649 28.551 35.296 28.9523 34.2856 28.9523ZM34.2856 22.8571C33.8336 22.8571 33.3916 22.9911 33.0158 23.2423C32.6399 23.4935 32.3469 23.8504 32.1739 24.2681C32.0009 24.6858 31.9556 25.1453 32.0438 25.5887C32.132 26.0321 32.3497 26.4394 32.6694 26.759C32.989 27.0787 33.3963 27.2964 33.8397 27.3846C34.2831 27.4728 34.7427 27.4275 35.1603 27.2545C35.578 27.0815 35.935 26.7886 36.1861 26.4127C36.4373 26.0368 36.5713 25.5949 36.5713 25.1428C36.5713 24.5366 36.3305 23.9552 35.9019 23.5266C35.4732 23.0979 34.8918 22.8571 34.2856 22.8571Z" fill="#6296CB"/>
<path d="M26.6666 16.7619H22.0952C21.8931 16.7619 21.6993 16.6816 21.5564 16.5387C21.4135 16.3958 21.3333 16.202 21.3333 16C21.3333 15.7979 21.4135 15.6041 21.5564 15.4612C21.6993 15.3183 21.8931 15.2381 22.0952 15.2381H26.6666C26.8686 15.2381 27.0624 15.3183 27.2053 15.4612C27.3482 15.6041 27.4285 15.7979 27.4285 16C27.4285 16.202 27.3482 16.3958 27.2053 16.5387C27.0624 16.6816 26.8686 16.7619 26.6666 16.7619ZM31.238 25.9047H25.1428C24.941 25.9038 24.7479 25.823 24.6056 25.6799L20.0342 21.1085C19.9094 20.9628 19.8442 20.7753 19.8516 20.5835C19.859 20.3918 19.9385 20.2099 20.0742 20.0742C20.2099 19.9385 20.3918 19.859 20.5835 19.8516C20.7753 19.8442 20.9627 19.9094 21.1085 20.0342L25.459 24.3809H31.238C31.4401 24.3809 31.6339 24.4612 31.7767 24.604C31.9196 24.7469 31.9999 24.9407 31.9999 25.1428C31.9999 25.3449 31.9196 25.5387 31.7767 25.6815C31.6339 25.8244 31.4401 25.9047 31.238 25.9047ZM34.2856 10.6666C33.5322 10.6666 32.7956 10.4432 32.1692 10.0246C31.5427 9.60602 31.0544 9.01106 30.7661 8.31496C30.4777 7.61886 30.4023 6.8529 30.5493 6.11392C30.6963 5.37495 31.0591 4.69616 31.5919 4.16339C32.1246 3.63062 32.8034 3.2678 33.5424 3.12081C34.2814 2.97382 35.0473 3.04926 35.7434 3.33759C36.4395 3.62592 37.0345 4.1142 37.4531 4.74067C37.8717 5.36714 38.0951 6.10367 38.0951 6.85712C38.0951 7.86747 37.6938 8.83643 36.9793 9.55086C36.2649 10.2653 35.296 10.6666 34.2856 10.6666ZM34.2856 4.57142C33.8335 4.57142 33.3916 4.70547 33.0157 4.95663C32.6399 5.20778 32.3469 5.56476 32.1739 5.98242C32.0009 6.40008 31.9556 6.85966 32.0438 7.30304C32.132 7.74643 32.3497 8.1537 32.6694 8.47336C32.989 8.79303 33.3963 9.01072 33.8397 9.09891C34.2831 9.18711 34.7426 9.14184 35.1603 8.96884C35.578 8.79584 35.9349 8.50288 36.1861 8.127C36.4373 7.75111 36.5713 7.30919 36.5713 6.85712C36.5713 6.25092 36.3305 5.66954 35.9018 5.24088C35.4732 4.81223 34.8918 4.57142 34.2856 4.57142Z" fill="#6296CB"/>
<path d="M20.5714 12.1907C20.4211 12.1901 20.2745 12.145 20.1498 12.0613C20.025 11.9775 19.9279 11.8587 19.8705 11.7199C19.8131 11.5811 19.798 11.4284 19.8271 11.281C19.8563 11.1336 19.9283 10.9982 20.0342 10.8916L24.6056 6.32022C24.7479 6.17714 24.941 6.09631 25.1428 6.09546H31.238C31.4401 6.09546 31.6339 6.17573 31.7768 6.31862C31.9196 6.4615 31.9999 6.65529 31.9999 6.85736C31.9999 7.05943 31.9196 7.25322 31.7768 7.39611C31.6339 7.53899 31.4401 7.61926 31.238 7.61926H25.459L21.1085 11.9659C20.9663 12.109 20.7731 12.1898 20.5714 12.1907Z" fill="#6296CB"/>
</svg>
