<svg width="26" height="35" viewBox="0 0 26 35" fill="none" xmlns="http://www.w3.org/2000/svg">
<path d="M20.6751 34.9999H5.04118C2.26132 34.9999 0 32.7386 0 29.9594V13.8225C0 11.7371 1.69662 10.0405 3.78198 10.0405C5.86733 10.0405 7.56395 11.7371 7.56395 13.8225V16.0932C8.21768 15.6005 9.01418 15.3344 9.83276 15.335C10.7133 15.3361 11.5659 15.6439 12.2441 16.2056C12.9222 16.7672 13.3835 17.5476 13.5486 18.4125C14.2136 17.8877 15.0364 17.6028 15.8835 17.6039C16.7641 17.6049 17.6167 17.9127 18.2949 18.4744C18.973 19.0361 19.4343 19.8164 19.5994 20.6813C20.2644 20.1565 21.0872 19.8716 21.9343 19.8727C22.937 19.8738 23.8983 20.2726 24.6073 20.9817C25.3163 21.6907 25.7151 22.652 25.7163 23.6546V29.9588C25.7157 32.7386 23.4544 34.9999 20.6751 34.9999ZM3.78198 11.5531C3.18045 11.5537 2.60375 11.793 2.17841 12.2183C1.75307 12.6437 1.51383 13.2204 1.51316 13.8219V29.9588C1.51416 30.8941 1.88617 31.7909 2.54759 32.4524C3.20901 33.1138 4.10579 33.4858 5.04118 33.4868H20.6751C21.6105 33.4858 22.5073 33.1138 23.1687 32.4524C23.8301 31.7909 24.2022 30.8941 24.2031 29.9588V23.6546C24.2025 23.0531 23.9632 22.4764 23.5379 22.0511C23.1126 21.6257 22.5359 21.3865 21.9343 21.3858C21.3328 21.3865 20.7561 21.6257 20.3308 22.0511C19.9054 22.4764 19.6662 23.0531 19.6655 23.6546C19.6655 23.8552 19.5858 24.0476 19.444 24.1894C19.3022 24.3312 19.1098 24.4109 18.9093 24.4109C18.7087 24.4109 18.5163 24.3312 18.3745 24.1894C18.2327 24.0476 18.153 23.8552 18.153 23.6546V21.3858C18.153 20.1347 17.1353 19.117 15.8842 19.117C14.6331 19.117 13.6154 20.1347 13.6154 21.3858C13.6154 21.5864 13.5357 21.7788 13.3939 21.9206C13.252 22.0624 13.0597 22.1421 12.8591 22.1421C12.6585 22.1421 12.4662 22.0624 12.3243 21.9206C12.1825 21.7788 12.1028 21.5864 12.1028 21.3858V19.117C12.1028 17.8659 11.0851 16.8482 9.83401 16.8482C8.58292 16.8482 7.5652 17.8659 7.5652 19.117C7.5652 19.3176 7.48552 19.51 7.34369 19.6518C7.20186 19.7936 7.0095 19.8733 6.80893 19.8733C6.60835 19.8733 6.41599 19.7936 6.27416 19.6518C6.13234 19.51 6.05266 19.3176 6.05266 19.117V13.8225C6.05134 13.2208 5.81164 12.6441 5.38606 12.2188C4.96047 11.7934 4.38368 11.5541 3.78198 11.5531Z" fill="#573DE8"/>
<path d="M6.21682 7.26304C6.1259 7.26304 6.0345 7.24118 5.95111 7.19699L4.24845 6.29416L2.54533 7.19699C2.45098 7.24688 2.34469 7.26918 2.23845 7.26137C2.13221 7.25356 2.03025 7.21596 1.94407 7.15281C1.85789 7.08966 1.79092 7.00347 1.75073 6.90397C1.71054 6.80448 1.69872 6.69563 1.71661 6.58972L2.04169 4.67713L0.664112 3.32288C0.58788 3.24776 0.533951 3.15268 0.508398 3.04833C0.482845 2.94398 0.486681 2.8345 0.519476 2.73223C0.586848 2.5241 0.765876 2.37205 0.98071 2.34069L2.88454 2.06176L3.73587 0.32166C3.783 0.225255 3.85595 0.14408 3.94645 0.087319C4.03696 0.0305576 4.14141 0.000475142 4.24798 0.000475142C4.35456 0.000475142 4.459 0.0305576 4.54951 0.087319C4.64001 0.14408 4.71296 0.225255 4.7601 0.32166L5.61142 2.06176L7.51525 2.34069C7.62077 2.35607 7.71991 2.40094 7.80145 2.47022C7.88299 2.5395 7.94366 2.63043 7.97661 2.73269C8.00956 2.83496 8.01346 2.94449 7.98788 3.04888C7.9623 3.15327 7.90824 3.24835 7.83185 3.32335L6.45427 4.6776L6.77935 6.59019C6.79317 6.67278 6.78899 6.75741 6.76711 6.8382C6.74522 6.919 6.70616 6.99402 6.65262 7.05805C6.59909 7.12208 6.53238 7.17358 6.45712 7.20898C6.38186 7.24438 6.29986 7.26283 6.21682 7.26304ZM2.28997 3.3129L3.05414 4.06415C3.18889 4.19625 3.25013 4.38727 3.21857 4.57402L3.03812 5.63461L3.98274 5.13377C4.06466 5.09024 4.15586 5.06749 4.24845 5.06749C4.34105 5.06749 4.43225 5.09024 4.51417 5.13377L5.45878 5.63461L5.27834 4.57402C5.26278 4.48195 5.26961 4.38746 5.29825 4.29865C5.32689 4.20984 5.37648 4.12937 5.44276 4.06415L6.20693 3.3129L5.15113 3.15799C5.05948 3.1446 4.97243 3.10892 4.8975 3.05403C4.82256 2.99915 4.76199 2.9267 4.72099 2.84295L4.24845 1.87786L3.77591 2.84295C3.73492 2.9267 3.67434 2.99915 3.59941 3.05403C3.52447 3.10892 3.43742 3.1446 3.34577 3.15799L2.28997 3.3129ZM14.9407 7.26304C14.8498 7.26304 14.7584 7.24118 14.675 7.19699L12.9723 6.29416L11.2692 7.19699C11.1749 7.24688 11.0686 7.26918 10.9623 7.26137C10.8561 7.25356 10.7541 7.21596 10.6679 7.15281C10.5818 7.08966 10.5148 7.00347 10.4746 6.90397C10.4344 6.80448 10.4226 6.69563 10.4405 6.58972L10.7656 4.67713L9.38799 3.32288C9.31123 3.24802 9.25686 3.15294 9.23107 3.04845C9.20527 2.94395 9.20909 2.83425 9.24208 2.73184C9.27508 2.62943 9.33593 2.53842 9.41769 2.46919C9.49946 2.39995 9.59886 2.35526 9.70458 2.34021L11.6084 2.06128L12.4597 0.321185C12.5069 0.22478 12.5798 0.143605 12.6703 0.0868439C12.7608 0.0300824 12.8653 0 12.9719 0C13.0784 0 13.1829 0.0300824 13.2734 0.0868439C13.3639 0.143605 13.4368 0.22478 13.484 0.321185L14.3353 2.06128L16.2391 2.34021C16.3444 2.35603 16.4433 2.40116 16.5246 2.47053C16.6059 2.5399 16.6663 2.63077 16.6992 2.73291C16.7321 2.83505 16.7361 2.94442 16.7108 3.04873C16.6854 3.15303 16.6317 3.24814 16.5557 3.32335L15.1781 4.6776L15.5032 6.59019C15.517 6.67278 15.5129 6.75741 15.491 6.8382C15.4691 6.919 15.43 6.99402 15.3765 7.05805C15.323 7.12208 15.2563 7.17358 15.181 7.20898C15.1057 7.24438 15.0237 7.26283 14.9407 7.26304ZM11.0138 3.3129L11.778 4.06415C11.9128 4.19625 11.974 4.38727 11.9424 4.57402L11.762 5.63461L12.7066 5.13377C12.7885 5.09024 12.8797 5.06749 12.9723 5.06749C13.0649 5.06749 13.1561 5.09024 13.238 5.13377L14.1827 5.63461L14.0022 4.57402C13.9866 4.48195 13.9935 4.38746 14.0221 4.29865C14.0508 4.20984 14.1004 4.12937 14.1666 4.06415L14.9308 3.3129L13.875 3.15799C13.7834 3.1446 13.6963 3.10892 13.6214 3.05403C13.5464 2.99915 13.4859 2.9267 13.4449 2.84295L12.9719 1.87786L12.4998 2.84295C12.4588 2.9267 12.3982 2.99915 12.3233 3.05403C12.2483 3.10892 12.1613 3.1446 12.0696 3.15799L11.0138 3.3129ZM23.6646 7.26304C23.5736 7.26304 23.4822 7.24118 23.3989 7.19699L21.6962 6.29416L19.9935 7.19699C19.8992 7.24688 19.7929 7.26918 19.6867 7.26137C19.5804 7.25356 19.4785 7.21596 19.3923 7.15281C19.3061 7.08966 19.2391 7.00347 19.1989 6.90397C19.1588 6.80448 19.1469 6.69563 19.1648 6.58972L19.4899 4.67713L18.1123 3.32288C18.0359 3.2479 17.9819 3.15286 17.9563 3.04851C17.9307 2.94415 17.9345 2.83465 17.9674 2.7324C18.0003 2.63014 18.0609 2.53921 18.1424 2.4699C18.2239 2.40059 18.323 2.35567 18.4285 2.34021L20.3323 2.06128L21.1836 0.321185C21.2307 0.22478 21.3037 0.143605 21.3942 0.0868439C21.4847 0.0300824 21.5891 0 21.6957 0C21.8023 0 21.9067 0.0300824 21.9972 0.0868439C22.0878 0.143605 22.1607 0.22478 22.2078 0.321185L23.0592 2.06128L24.963 2.34021C25.0683 2.35603 25.1672 2.40116 25.2485 2.47053C25.3297 2.5399 25.3902 2.63077 25.4231 2.73291C25.456 2.83505 25.46 2.94442 25.4346 3.04873C25.4093 3.15303 25.3556 3.24814 25.2796 3.32335L23.902 4.6776L24.2271 6.59019C24.2409 6.67278 24.2367 6.75741 24.2148 6.8382C24.193 6.919 24.1539 6.99402 24.1004 7.05805C24.0468 7.12208 23.9801 7.17358 23.9049 7.20898C23.8296 7.24438 23.7476 7.26283 23.6646 7.26304ZM19.7377 3.3129L20.5019 4.06415C20.6366 4.19625 20.6979 4.38727 20.6663 4.57402L20.4859 5.63461L21.4305 5.13377C21.5124 5.09024 21.6036 5.06749 21.6962 5.06749C21.7888 5.06749 21.88 5.09024 21.9619 5.13377L22.9065 5.63461L22.7261 4.57402C22.7105 4.48195 22.7174 4.38746 22.746 4.29865C22.7746 4.20984 22.8242 4.12937 22.8905 4.06415L23.6547 3.3129L22.5989 3.15799C22.5072 3.1446 22.4202 3.10892 22.3452 3.05403C22.2703 2.99915 22.2097 2.9267 22.1687 2.84295L21.6957 1.87786L21.2237 2.84295C21.1827 2.9267 21.1221 2.99915 21.0472 3.05403C20.9722 3.10892 20.8852 3.1446 20.7935 3.15799L19.7377 3.3129Z" fill="#573DE8"/>
</svg>
