<svg width="41" height="36" viewBox="0 0 41 36" fill="none" xmlns="http://www.w3.org/2000/svg">
<path d="M12.1096 13.491C8.59938 13.491 5.73921 16.2371 5.6157 19.6708C2.88384 20.9764 1 23.7382 1 26.9341C1 31.3887 4.66009 35 9.17499 35H30.975C35.4901 35 39.15 31.3887 39.15 26.9341C39.15 24.6466 38.1851 22.5815 36.6346 21.1136C36.6185 18.5001 34.466 16.3864 31.8135 16.3864H31.3942C31.2936 16.3864 31.1937 16.3895 31.0945 16.3954C30.566 14.8407 29.4403 13.3422 28.25 12.25" stroke="#6BC3EF" stroke-width="2"/>
<path d="M23.9765 23.1285C23.9765 21.1347 25.2361 19.4036 26.5154 17.8744C27.6306 16.5412 28.3 14.8353 28.3 12.9761C28.3 8.70909 24.7742 5.25 20.425 5.25C16.0757 5.25 12.55 8.70909 12.55 12.9761C12.55 14.8353 13.2194 16.5412 14.3346 17.8744C15.6139 19.4036 16.8735 21.1347 16.8735 23.1285V23.45C16.8735 24.6098 17.8137 25.55 18.9735 25.55H21.8765C23.0363 25.55 23.9765 24.6098 23.9765 23.45V23.1285Z" stroke="#6BC3EF" stroke-width="2"/>
<path d="M20.95 8.05005C17.8572 8.05005 15.35 10.4005 15.35 13.3" stroke="#6BC3EF" stroke-width="2" stroke-linecap="round"/>
<path d="M18.15 25.2V25.725C18.15 26.9814 19.1686 28 20.425 28C21.6815 28 22.7 26.9814 22.7 25.725V25.2" stroke="#6BC3EF" stroke-width="2"/>
<path d="M30.1852 8.95065C29.8826 9.13591 29.4875 9.01712 29.3101 8.70982C29.1297 8.39738 29.2143 7.99033 29.522 7.80199L31.3976 6.65381C31.7539 6.44815 32.1911 6.53856 32.3742 6.85576C32.5574 7.17297 32.417 7.59682 32.0608 7.80248L30.1852 8.95065ZM26.5362 4.56666C26.3471 4.89416 25.9202 4.98985 25.5927 4.80074C25.2652 4.61167 25.1347 4.19416 25.3237 3.86666L26.3271 2.12877C26.5328 1.77254 26.9709 1.64045 27.3057 1.83376C27.6405 2.02706 27.7452 2.47254 27.5395 2.82877L26.5362 4.56666ZM20.95 2.79934C20.95 3.17737 20.6281 3.47344 20.25 3.47344C19.872 3.47344 19.55 3.17737 19.55 2.79934V0.75509C19.55 0.338065 19.8634 0 20.25 0C20.6366 0 20.95 0.338065 20.95 0.75509V2.79934ZM15.4347 3.91143C15.6238 4.23892 15.4932 4.65644 15.1657 4.84554C14.8382 5.03461 14.4114 4.93892 14.2223 4.61143L13.2189 2.87354C13.0132 2.51731 13.1179 2.07183 13.4527 1.87852C13.7876 1.68525 14.2257 1.81731 14.4313 2.17354L15.4347 3.91143ZM11.2279 7.9513C11.5357 8.13967 11.6202 8.54672 11.4399 8.85917C11.2624 9.16647 10.8674 9.28526 10.5648 9.09997L8.6891 7.95176C8.33287 7.7461 8.19256 7.32221 8.37568 7.00504C8.55883 6.68784 8.99605 6.59743 9.35228 6.80309L11.2279 7.9513Z" fill="#6BC3EF"/>
<path d="M30.575 31.1499C32.9913 31.1499 34.95 29.1911 34.95 26.7749C34.95 24.3587 32.9913 22.3999 30.575 22.3999C28.1588 22.3999 26.2 24.3587 26.2 26.7749C26.2 29.1911 28.1588 31.1499 30.575 31.1499Z" stroke="#6BC3EF" stroke-width="2"/>
<path d="M29.35 27.2508L29.7853 27.7481C30.0641 28.0668 30.5599 28.0668 30.8388 27.7481L32.15 26.25" stroke="#6BC3EF" stroke-width="2" stroke-linecap="round" stroke-linejoin="round"/>
<path d="M5.90002 26.25H13.25M5.90002 29.4H13.25" stroke="#6BC3EF" stroke-width="2" stroke-linecap="round"/>
</svg>
