<svg width="35" height="35" viewBox="0 0 35 35" fill="none" xmlns="http://www.w3.org/2000/svg">
<path d="M34.8402 7.86087C34.738 7.75869 34.5994 7.70129 34.4549 7.70129C34.3103 7.70129 34.1717 7.75869 34.0695 7.86087L31.3715 10.5588L25.2048 4.39336L27.9028 1.69435C28.0021 1.59156 28.057 1.45388 28.0558 1.31098C28.0545 1.16807 27.9972 1.03137 27.8961 0.930315C27.7951 0.829261 27.6584 0.77194 27.5155 0.770699C27.3725 0.769457 27.2349 0.824393 27.1321 0.923676L26.7473 1.30847L20.9664 7.09019C20.8642 7.1924 20.8068 7.33101 20.8068 7.47553C20.8068 7.62005 20.8642 7.75866 20.9664 7.86087L21.3523 8.24675L20.5565 9.0425L20.0475 9.54938L18.0547 8.88553C17.9586 8.85373 17.8556 8.84923 17.757 8.87251C17.6585 8.8958 17.5683 8.94596 17.4966 9.01743L17.1107 8.63155C16.8686 8.39706 16.5614 8.24103 16.2292 8.18386C15.8971 8.12669 15.5554 8.17102 15.2488 8.31107L14.4127 7.47498L14.7975 7.09019C14.8997 6.98798 14.9571 6.84937 14.9571 6.70485C14.9571 6.56033 14.8997 6.42172 14.7975 6.31951L9.01776 0.537791L8.63186 0.152998C8.52906 0.0537152 8.39138 -0.00122121 8.24847 2.06037e-05C8.10555 0.00126242 7.96885 0.0585831 7.86779 0.159637C7.76673 0.260691 7.70941 0.397392 7.70817 0.540298C7.70693 0.683204 7.76187 0.820881 7.86115 0.923676L10.5592 3.62268L4.39243 9.78811L1.69441 7.09019C1.59162 6.99091 1.45393 6.93597 1.31102 6.93721C1.16811 6.93846 1.03141 6.99578 0.930348 7.09683C0.829291 7.19788 0.771968 7.33458 0.770727 7.47749C0.769485 7.6204 0.824423 7.75807 0.923709 7.86087L1.30961 8.24675L7.09045 14.0285C7.14108 14.0792 7.20122 14.1195 7.26744 14.147C7.33366 14.1745 7.40465 14.1886 7.47634 14.1886C7.54804 14.1886 7.61903 14.1745 7.68525 14.147C7.75146 14.1195 7.81161 14.0792 7.86224 14.0285L8.24814 13.6426L9.40474 14.7992H9.40583L9.54973 14.9452L8.88585 16.9379C8.85388 17.0337 8.84918 17.1366 8.87228 17.2349C8.89538 17.3333 8.94537 17.4233 9.01667 17.4949L8.63077 17.8808C8.39227 18.1202 8.23366 18.4276 8.17667 18.7607C8.11968 19.0938 8.16711 19.4364 8.31246 19.7415L7.47525 20.5787L7.08936 20.1928C6.98528 20.0942 6.84737 20.0393 6.704 20.0393C6.56064 20.0393 6.42273 20.0942 6.31865 20.1928L0.537811 25.9745L0.153003 26.3604C0.0537171 26.4632 -0.00122126 26.6009 2.06045e-05 26.7438C0.00126247 26.8867 0.0585852 27.0234 0.159643 27.1245C0.2607 27.2255 0.397406 27.2828 0.540317 27.2841C0.683229 27.2853 0.820911 27.2304 0.923709 27.1311L3.62172 24.4332L9.78846 30.5986L7.09045 33.2976C7.03984 33.3483 6.99971 33.4084 6.97235 33.4746C6.94499 33.5408 6.93094 33.6117 6.93099 33.6833C6.93104 33.7549 6.94519 33.8258 6.97265 33.892C7.0001 33.9581 7.04031 34.0182 7.09099 34.0688C7.14167 34.1194 7.20182 34.1596 7.268 34.1869C7.33419 34.2143 7.40511 34.2283 7.47673 34.2283C7.54835 34.2282 7.61925 34.2141 7.6854 34.1866C7.75155 34.1592 7.81164 34.119 7.86224 34.0683L8.24705 33.6835L14.0279 27.9018C14.1301 27.7996 14.1875 27.661 14.1875 27.5164C14.1875 27.3719 14.1301 27.2333 14.0279 27.1311L13.642 26.7452L14.4378 25.9495L14.9447 25.4426L16.9374 26.1064C17.0336 26.1377 17.1365 26.142 17.2349 26.1187C17.3334 26.0955 17.4235 26.0456 17.4955 25.9745L17.8814 26.3604C18.1237 26.5946 18.4309 26.7505 18.763 26.8076C19.0951 26.8648 19.4367 26.8206 19.7433 26.6809L20.5794 27.517L20.1946 27.9018C20.0924 28.004 20.035 28.1426 20.035 28.2871C20.035 28.4316 20.0924 28.5702 20.1946 28.6724L25.9755 34.4542L26.3603 34.839C26.4108 34.89 26.4709 34.9305 26.5371 34.9581C26.6033 34.9858 26.6744 35 26.7462 35C26.8179 35 26.889 34.9858 26.9552 34.9581C27.0215 34.9305 27.0816 34.89 27.1321 34.839C27.2343 34.7368 27.2917 34.5981 27.2917 34.4536C27.2917 34.3091 27.2343 34.1705 27.1321 34.0683L24.4341 31.3693L30.6008 25.2038L33.2988 27.9018C33.4016 28.001 33.5393 28.056 33.6822 28.0547C33.8251 28.0535 33.9618 27.9962 34.0629 27.8951C34.1639 27.7941 34.2213 27.6574 34.2225 27.5145C34.2237 27.3716 34.1688 27.2339 34.0695 27.1311L33.6836 26.7452L27.9028 20.9635C27.7987 20.8649 27.6608 20.8099 27.5174 20.8099C27.3741 20.8099 27.2361 20.8649 27.1321 20.9635L26.7462 21.3494L25.5896 20.1928L25.4435 20.0467L26.1074 18.0541C26.1393 17.9582 26.144 17.8554 26.1209 17.757C26.0978 17.6587 26.0478 17.5687 25.9766 17.4971L26.3625 17.1112C26.8639 16.6087 26.9707 15.8587 26.6808 15.2504L27.518 14.4133L27.9039 14.7992C27.9545 14.8499 28.0146 14.8902 28.0809 14.9177C28.1471 14.9451 28.2181 14.9593 28.2898 14.9593C28.3615 14.9593 28.4324 14.9451 28.4987 14.9177C28.5649 14.8902 28.625 14.8499 28.6757 14.7992L34.4565 9.01743L34.8424 8.63155C34.9438 8.52877 35.0004 8.39011 35 8.24576C34.9996 8.10141 34.9422 7.96307 34.8402 7.86087ZM7.47634 12.8719L5.16314 10.5588L11.3299 4.39227L13.642 6.70431L13.2572 7.0891L10.5592 9.78811L7.47634 12.8719ZM9.01776 12.8719L11.3299 10.5588L13.642 8.24566L14.7986 9.40113C14.9029 9.4998 15.0409 9.55479 15.1845 9.55479C15.328 9.55479 15.4661 9.4998 15.5704 9.40113C15.6742 9.30205 15.8122 9.24676 15.9557 9.24676C16.0993 9.24676 16.2373 9.30205 16.3411 9.40113L16.727 9.78702L15.5704 10.9436L10.2659 16.2479L10.6911 14.9714C10.7231 14.8753 10.7278 14.7722 10.7045 14.6736C10.6812 14.575 10.6308 14.4848 10.5592 14.4133L9.81353 13.6677L9.01776 12.8719ZM10.5592 29.829L4.39243 23.6625L6.70564 21.3494L9.78846 24.4332L12.4865 27.1311L12.8713 27.5159L10.5592 29.829ZM16.9635 24.9662L14.9708 24.3024C14.8747 24.2703 14.7716 24.2657 14.673 24.289C14.5744 24.3123 14.4843 24.3626 14.4127 24.4343L14.0268 24.8201L13.6671 25.1799L12.8713 25.9756L10.5592 23.6625L8.24705 21.3494L9.40365 20.1928C9.61623 19.9802 9.61623 19.6347 9.40365 19.4221C9.19108 19.2096 9.19108 18.864 9.40365 18.6515L16.3422 11.7143C16.446 11.6152 16.584 11.5599 16.7275 11.5599C16.8711 11.5599 17.0091 11.6152 17.1129 11.7143C17.2149 11.8168 17.2721 11.9555 17.2721 12.1001C17.2721 12.2448 17.2149 12.3835 17.1129 12.486L15.5715 14.0274C15.4722 14.1302 15.4173 14.2679 15.4185 14.4108C15.4197 14.5537 15.4771 14.6904 15.5781 14.7914C15.6792 14.8925 15.8159 14.9498 15.9588 14.951C16.1017 14.9523 16.2394 14.8973 16.3422 14.7981L17.8836 13.2567C17.9877 13.1578 18.1259 13.1026 18.2695 13.1026C18.4131 13.1026 18.5513 13.1578 18.6554 13.2567C18.7061 13.3072 18.7464 13.3673 18.7738 13.4334C18.8013 13.4995 18.8154 13.5704 18.8154 13.642C18.8154 13.7136 18.8013 13.7845 18.7738 13.8507C18.7464 13.9168 18.7061 13.9768 18.6554 14.0274L17.114 15.5687C17.0118 15.6711 16.9544 15.8098 16.9545 15.9545C16.9546 16.0991 17.0122 16.2378 17.1145 16.34C17.2169 16.4422 17.3556 16.4995 17.5003 16.4994C17.6449 16.4993 17.7836 16.4418 17.8858 16.3394L19.4272 14.7981C19.53 14.6988 19.6677 14.6438 19.8106 14.6451C19.9535 14.6463 20.0902 14.7036 20.1913 14.8047C20.2923 14.9058 20.3496 15.0425 20.3509 15.1854C20.3521 15.3283 20.2972 15.4659 20.1979 15.5687L18.6554 17.1101C18.5532 17.2124 18.4958 17.3512 18.4959 17.4958C18.496 17.6405 18.5536 17.7791 18.6559 17.8813C18.7583 17.9835 18.897 18.0409 19.0417 18.0408C19.1863 18.0407 19.325 17.9831 19.4272 17.8808L20.9697 16.3394C21.0735 16.2403 21.2115 16.185 21.355 16.185C21.4986 16.185 21.6366 16.2403 21.7404 16.3394C21.8426 16.4416 21.9 16.5802 21.9 16.7248C21.9 16.8693 21.8426 17.0079 21.7404 17.1101L18.5093 20.3411L18.505 20.3454L16.4 22.4503C16.3007 22.5531 16.2457 22.6908 16.247 22.8337C16.2482 22.9766 16.3055 23.1133 16.4066 23.2144C16.5077 23.3154 16.6444 23.3728 16.7873 23.374C16.9302 23.3752 17.0679 23.3203 17.1707 23.221L17.4977 22.894L17.501 22.8918L19.2789 21.1139C19.4996 20.8941 19.79 20.758 20.1001 20.729C20.4102 20.7 20.7207 20.7798 20.9784 20.9548L16.9635 24.9662ZM27.5169 22.12L29.8301 24.4332L23.6633 30.5997L21.3512 28.2877L21.736 27.9029L24.4341 25.2049L27.5169 22.12ZM25.9755 22.12L23.6633 24.4332L21.3512 26.7463L20.1946 25.5908C20.0902 25.4924 19.9522 25.4376 19.8087 25.4376C19.6653 25.4376 19.5272 25.4924 19.4228 25.5908C19.319 25.6899 19.181 25.7452 19.0375 25.7452C18.894 25.7452 18.7559 25.6899 18.6521 25.5908L18.2662 25.2049L22.1459 21.3243C22.2079 21.2598 22.2526 21.1807 22.2756 21.0943C22.3621 21.0714 22.4413 21.0268 22.5057 20.9646L24.7273 18.7441L24.3011 20.0217C24.269 20.1178 24.2644 20.2209 24.2877 20.3195C24.311 20.4181 24.3613 20.5082 24.433 20.5798L25.1786 21.3254L25.9755 22.12ZM25.5907 14.7981C25.3781 15.0106 25.3781 15.3562 25.5907 15.5687C25.8032 15.7813 25.8032 16.1269 25.5907 16.3394L21.7437 20.1852C21.4424 19.937 21.0856 19.7653 20.7037 19.6848L22.5078 17.8808C22.8141 17.574 22.9861 17.1582 22.9861 16.7248C22.9861 16.2913 22.8141 15.8755 22.5078 15.5687C22.2175 15.2906 21.8338 15.1308 21.4319 15.1207C21.4206 14.7105 21.2543 14.3198 20.9664 14.0274C20.6795 13.7455 20.2978 13.5807 19.8959 13.5652C19.8799 13.1591 19.7118 12.7739 19.425 12.486C19.1347 12.2078 18.751 12.0481 18.3491 12.038C18.3381 11.6272 18.1713 11.2359 17.8825 10.9436C17.7463 10.815 17.5879 10.7123 17.4149 10.6405L18.0297 10.0257L20.0224 10.6896C20.1185 10.7216 20.2216 10.7263 20.3202 10.703C20.4188 10.6797 20.5089 10.6294 20.5805 10.5577L20.9664 10.1718L21.3262 9.81209L22.1219 9.01634L24.4341 11.3295L26.7462 13.6426L25.5907 14.7981ZM28.2876 13.6426L25.2048 10.5588L22.5067 7.86087L22.1219 7.47607L24.4341 5.16404L30.6008 11.3306L28.2876 13.6426Z" fill="#6B94EF"/>
</svg>
