<svg width="38" height="37" viewBox="0 0 38 37" fill="none" xmlns="http://www.w3.org/2000/svg">
<path d="M8.88423 21.1573H8.61313C7.06192 21.1547 5.56827 20.5707 4.42816 19.5209C3.28805 18.4712 2.58467 17.0322 2.45741 15.4893C2.33015 13.9464 2.78829 12.4121 3.74104 11.1904C4.6938 9.96866 6.07164 9.14872 7.60155 8.89303C7.53714 8.4863 7.50467 8.07516 7.50444 7.66337C7.50444 5.89619 8.20785 4.20139 9.45992 2.9518C10.712 1.70222 12.4102 1.00021 14.1808 1.00021C15.4515 0.990089 16.6979 1.34811 17.7687 2.03085C18.8396 2.71359 19.689 3.69174 20.2139 4.84667C21.23 4.04729 22.4869 3.61397 23.7807 3.61702C25.2239 3.61111 26.6177 4.14145 27.6906 5.10478C28.7636 6.0681 29.4409 7.39546 29.5872 8.82842C31.2057 8.8869 32.7365 9.57729 33.8501 10.751C34.9637 11.9247 35.571 13.4878 35.5413 15.1039C35.5116 16.72 34.8472 18.2599 33.6913 19.392C32.5353 20.5242 30.9802 21.1581 29.3606 21.1573H16.9768M19 25.7185V29.7568M30.7444 32.8784H22.1278M7.25559 32.8784H15.8722M15.8722 29.7568H22.1278V36H15.8722V29.7568ZM30.7444 29.7568H37V36H30.7444V29.7568ZM7.25559 36H1V29.7568H7.25559V36Z" stroke="#6BEF7A" stroke-width="2" stroke-linecap="round" stroke-linejoin="round"/>
</svg>
