<svg width="35" height="35" viewBox="0 0 35 35" fill="none" xmlns="http://www.w3.org/2000/svg">
<path fill-rule="evenodd" clip-rule="evenodd" d="M34.9813 5.28495C34.9707 4.76546 34.7555 4.27108 34.3824 3.90908C34.0093 3.54707 33.5084 3.34662 32.9883 3.35122C32.5712 3.35384 32.1651 3.48526 31.8257 3.72746C30.68 4.46996 29.3373 4.85104 27.9721 4.8212C26.0575 4.81245 23.5579 4.10371 22.8147 2.09123C22.6119 1.491 22.2285 0.967998 21.7169 0.593693C21.2053 0.219387 20.5905 0.0120429 19.9565 0H15.0518C14.4167 0.0118328 13.8007 0.218962 13.2877 0.593172C12.7747 0.967381 12.3896 1.49048 12.1848 2.09123C11.4404 4.10371 8.94164 4.8212 7.02708 4.8212C5.66199 4.84956 4.31972 4.46859 3.17345 3.72746C2.83419 3.48521 2.42822 3.35379 2.01123 3.35122C1.49108 3.3465 0.990037 3.54689 0.616849 3.90892C0.24366 4.27094 0.0284299 4.76538 0.0178449 5.28495C-0.366643 22.7585 5.46372 32.7509 17.3434 34.9909C17.3955 34.9982 17.4481 35.0011 17.5006 34.9996C17.5563 35.0009 17.6119 34.9979 17.6671 34.9909C20.558 34.49 23.3016 33.3544 25.7001 31.6659C26.1671 31.7538 26.6412 31.7977 27.1164 31.7972C29.2039 31.7921 31.2043 30.9603 32.679 29.4841C34.1537 28.0079 34.9824 26.0078 34.9835 23.9223C34.9869 22.2983 34.4828 20.7138 33.5414 19.3898C34.6239 15.4173 35.1039 10.7157 34.9813 5.28495ZM27.6738 30.0122C27.4883 30.0372 27.3013 30.0489 27.1142 30.0472C26.4878 30.0502 25.8651 29.9527 25.2697 29.7585C24.4682 29.507 23.7279 29.0916 23.0958 28.5388C22.4637 27.9859 21.9537 27.3077 21.5982 26.5472C21.3303 26.0081 21.1528 25.4288 21.0727 24.8322C21.02 24.5318 20.9937 24.2273 20.9939 23.9223C20.9952 22.619 21.4119 21.3499 22.1835 20.299C22.9551 19.2482 24.0415 18.47 25.2854 18.0773H25.2942C25.8822 17.8908 26.4955 17.7964 27.1124 17.7973H27.1912C28.021 17.8086 28.8398 17.989 29.5973 18.3276C30.3548 18.6661 31.0351 19.1556 31.5967 19.766C32.1265 20.3301 32.5395 20.9932 32.8119 21.7173C33.0901 22.4191 33.2325 23.1674 33.2314 23.9223C33.2318 25.4469 32.6621 26.9166 31.634 28.0433C30.6058 29.1699 29.1934 29.8721 27.6738 30.0122ZM32.1143 17.8498C30.8374 16.7935 29.2583 16.1685 27.6038 16.0648C27.8677 14.8315 28.0602 13.5841 28.1805 12.3286C28.1951 12.2106 28.1839 12.0908 28.1477 11.9775C28.1115 11.8642 28.0511 11.7601 27.9707 11.6724C27.8945 11.5808 27.7999 11.5062 27.693 11.4535C27.5861 11.4007 27.4693 11.371 27.3502 11.3661C23.5841 11.2086 20.2433 9.6424 18.1803 7.06118C18.0963 6.96248 17.9918 6.88319 17.874 6.82883C17.7563 6.77446 17.6282 6.7463 17.4985 6.7463C17.3688 6.7463 17.2406 6.77446 17.1229 6.82883C17.0052 6.88319 16.9007 6.96248 16.8166 7.06118C14.7536 9.6424 11.4145 11.2086 7.64717 11.3661C7.41489 11.3754 7.19578 11.4764 7.03806 11.647C6.88034 11.8176 6.79691 12.0438 6.80614 12.2759C6.81538 12.508 6.91652 12.7269 7.0873 12.8844C7.25807 13.042 7.48451 13.1253 7.7168 13.1161C11.6068 12.9586 15.1123 11.4449 17.4985 8.93366C19.8566 11.3219 22.9968 12.7818 26.3443 13.0461C26.2178 14.0902 26.0369 15.127 25.8026 16.1523C23.9683 16.4673 22.3043 17.4198 21.1047 18.8415C19.9051 20.2632 19.247 22.0628 19.2466 23.9223C19.2461 24.562 19.3224 25.1994 19.4739 25.821C19.6118 26.3792 19.8142 26.9194 20.0769 27.431C20.8322 28.9496 22.0588 30.1835 23.5736 30.9484C21.7015 32.0685 19.6439 32.8449 17.498 33.2409C6.70259 31.1234 1.40515 21.7348 1.76381 5.32869C1.76652 5.28433 1.78139 5.24157 1.80676 5.20506C1.83213 5.16855 1.86703 5.1397 1.90768 5.12165C1.94834 5.1036 1.99316 5.09704 2.03729 5.1027C2.08141 5.10835 2.12316 5.12599 2.15794 5.1537C3.59797 6.11161 5.29696 6.60626 7.02665 6.57119C10.2874 6.57119 12.9534 5.0487 13.8274 2.69497C13.9099 2.43115 14.0716 2.19901 14.2905 2.02999C14.5094 1.86097 14.7751 1.76322 15.0514 1.74998H19.956C20.2309 1.76475 20.4946 1.86322 20.7118 2.03216C20.9289 2.20109 21.0891 2.43239 21.1708 2.69497C21.6442 3.90289 22.5339 4.90211 23.6796 5.51245C24.9943 6.23051 26.473 6.59532 27.9712 6.57119C29.701 6.60624 31.4001 6.11159 32.8403 5.1537C32.8823 5.1197 32.9347 5.10117 32.9888 5.1012C33.0513 5.09964 33.1119 5.12258 33.1576 5.1651C33.2034 5.20762 33.2306 5.26634 33.2336 5.32869C33.3896 9.53284 33.0136 13.7398 32.1143 17.8498ZM20.0773 27.431C19.3202 27.7953 18.5259 28.0769 17.7082 28.271C17.5706 28.306 17.4263 28.306 17.2887 28.271C12.1839 27.0285 8.97579 23.1698 7.47199 16.4761C7.44727 16.3643 7.44484 16.2486 7.46483 16.1359C7.48482 16.0231 7.52686 15.9154 7.58853 15.8188C7.6502 15.7223 7.73029 15.6388 7.82424 15.5732C7.9182 15.5076 8.02417 15.4611 8.13611 15.4364C8.24805 15.4117 8.36374 15.4092 8.47662 15.4292C8.58951 15.4492 8.69736 15.4912 8.79399 15.5528C8.89063 15.6144 8.97418 15.6944 9.03987 15.7883C9.10555 15.8821 9.15207 15.988 9.17679 16.0998C11.0909 24.6223 15.7065 26.0747 17.4971 26.521C18.1791 26.3594 18.8416 26.1247 19.473 25.821C19.6114 26.3792 19.8142 26.9195 20.0773 27.431ZM26.1271 27.3308C25.8952 27.3305 25.6728 27.2383 25.5088 27.0744L23.0004 24.5636C22.8483 24.3975 22.7662 24.1791 22.7711 23.954C22.776 23.7289 22.8676 23.5143 23.0269 23.355C23.1861 23.1956 23.4007 23.1037 23.626 23.0984C23.8513 23.0931 24.07 23.1747 24.2366 23.3264L26.1271 25.2186L29.9934 21.3476C30.0733 21.2603 30.1701 21.1902 30.2779 21.1413C30.3857 21.0924 30.5023 21.0659 30.6206 21.0633C30.7389 21.0607 30.8566 21.0821 30.9664 21.1263C31.0762 21.1704 31.176 21.2362 31.2596 21.3199C31.3432 21.4036 31.409 21.5034 31.453 21.6132C31.4969 21.723 31.5181 21.8406 31.5153 21.9588C31.5125 22.077 31.4858 22.1934 31.4367 22.301C31.3876 22.4086 31.3172 22.5052 31.2297 22.5848L26.745 27.0744C26.6638 27.1557 26.5674 27.2202 26.4612 27.2642C26.355 27.3082 26.2412 27.3308 26.1262 27.3308H26.1271Z" fill="#6BEFE4"/>
</svg>
