<svg width="35" height="35" viewBox="0 0 35 35" fill="none" xmlns="http://www.w3.org/2000/svg">
<path d="M34.9999 16.9327C34.999 15.6504 34.8483 14.3725 34.5507 13.1238L34.5406 13.0843C33.6203 9.34685 31.4412 6.02272 28.3553 3.64904C25.2694 1.27535 21.457 -0.00921129 17.5342 0.0029266L17.514 0.000452886H17.4661C13.5385 -0.0276319 9.71741 1.25124 6.62772 3.62793C3.53804 6.00462 1.36261 9.33847 0.457204 13.0843L0.44711 13.1238C-0.270467 16.1607 -0.122053 19.3326 0.876117 22.2924C1.02913 22.7505 1.2759 23.1733 1.60134 23.5348C1.92677 23.8962 2.32402 24.1888 2.7688 24.3947C3.28005 24.6379 3.8408 24.7648 4.40912 24.7657C4.81816 24.7656 5.22455 24.7013 5.61286 24.5752L7.10429 24.0707C7.917 23.8091 8.61267 23.2806 9.07383 22.5745C9.53498 21.8683 9.73335 21.0279 9.63543 20.195L9.09034 15.6441C8.97741 14.8009 8.57327 14.021 7.94517 13.4342C7.31706 12.8474 6.50288 12.4891 5.6381 12.4189L3.32146 12.2606C4.32884 9.41099 6.2148 6.93854 8.71849 5.18524C11.2222 3.43194 14.2199 2.48443 17.297 2.47376H17.514C20.6283 2.42454 23.6781 3.34578 26.2239 5.10468C28.7696 6.86359 30.6797 9.3693 31.6788 12.2606L29.3445 12.4214C28.4801 12.4948 27.6674 12.8561 27.0416 13.4451C26.4158 14.0341 26.0147 14.8154 25.9049 15.659L25.3623 20.2099C25.2664 21.0389 25.4643 21.8751 25.9229 22.5781C26.3814 23.2811 27.0728 23.8081 27.8809 24.0707L29.4026 24.5851C29.6339 24.6444 29.8705 24.6816 30.1092 24.6964C28.957 26.4784 27.4183 27.9895 25.6025 29.1224C23.7867 30.2552 21.7385 30.9819 19.6035 31.2507C19.3877 30.9509 19.1026 30.7054 18.7715 30.5344C18.4403 30.3633 18.0725 30.2714 17.6982 30.2663C17.2674 30.2604 16.8428 30.3676 16.4684 30.5767C16.0941 30.7859 15.7837 31.0894 15.5693 31.4557C15.355 31.8221 15.2446 32.238 15.2495 32.6602C15.2545 33.0825 15.3746 33.4958 15.5975 33.8573C15.8204 34.2187 16.1378 34.5151 16.517 34.7158C16.8961 34.9164 17.3231 35.014 17.7537 34.9984C18.1843 34.9828 18.6028 34.8545 18.9658 34.627C19.3288 34.3994 19.623 34.0808 19.818 33.7042C23.0028 33.3279 26.0163 32.0849 28.5171 30.116C31.0179 28.1472 32.9061 25.5312 33.9677 22.5644C34.0081 22.4729 34.0863 22.4037 34.1191 22.3072C34.7101 20.5757 35.0077 18.761 34.9999 16.9352V16.9327ZM5.44378 14.8799C5.72937 14.9032 5.99829 15.0213 6.20614 15.2147C6.41399 15.408 6.54832 15.6651 6.58696 15.9434L7.127 20.4695C7.1579 20.7417 7.09187 21.0159 6.9401 21.2458C6.78833 21.4757 6.56016 21.6471 6.29422 21.7309L4.81037 22.2305C4.49756 22.3289 4.15827 22.3068 3.8615 22.1687C3.72214 22.1051 3.59759 22.0141 3.49558 21.9013C3.39357 21.7886 3.31627 21.6565 3.26846 21.5133C2.53032 19.3165 2.33655 16.9791 2.70318 14.6944L5.44378 14.8799ZM31.1337 22.1687C30.8443 22.3063 30.5124 22.331 30.2051 22.238L28.6909 21.726C28.4293 21.6421 28.205 21.4728 28.0553 21.2464C27.9056 21.02 27.8396 20.7502 27.8682 20.4819L28.4108 15.9533C28.4468 15.6758 28.5781 15.4185 28.7831 15.2239C28.9881 15.0292 29.2547 14.9088 29.5388 14.8823L32.2946 14.6944C32.6529 16.9141 32.4749 19.1853 31.7747 21.3253C31.7672 21.3426 31.752 21.355 31.747 21.3748C31.7015 21.5108 31.6309 21.632 31.5804 21.7705C31.4716 21.9394 31.3181 22.0762 31.1363 22.1662L31.1337 22.1687ZM17.4989 10.4724C17.1696 10.4744 16.8527 10.3501 16.6156 10.1262C16.4957 10.0096 16.4005 9.8709 16.3355 9.71808C16.2705 9.56526 16.2371 9.40134 16.2371 9.23578C16.2337 9.07365 16.2683 8.91291 16.338 8.76586C16.3972 8.6142 16.4923 8.47854 16.6156 8.37013C16.8545 8.14924 17.1705 8.0262 17.4989 8.0262C17.8273 8.0262 18.1433 8.14924 18.3821 8.37013C18.5036 8.48036 18.6001 8.61439 18.6653 8.76352C18.7305 8.91265 18.763 9.07355 18.7607 9.23578C18.7605 9.40132 18.727 9.5652 18.6621 9.718C18.5971 9.8708 18.502 10.0095 18.3821 10.1262C18.1451 10.3501 17.8281 10.4744 17.4989 10.4724ZM13.335 8.37013C13.4565 8.48036 13.5529 8.61439 13.6181 8.76352C13.6834 8.91265 13.7159 9.07355 13.7135 9.23578C13.7134 9.40132 13.6799 9.5652 13.6149 9.718C13.55 9.8708 13.4548 10.0095 13.335 10.1262C13.0979 10.3501 12.781 10.4744 12.4517 10.4724C12.286 10.4786 12.1214 10.4446 11.9723 10.3735C11.8208 10.321 11.683 10.2366 11.5685 10.1262C11.4485 10.0096 11.3533 9.8709 11.2884 9.71808C11.2234 9.56526 11.19 9.40134 11.19 9.23578C11.1876 9.07355 11.2201 8.91265 11.2853 8.76352C11.3505 8.61439 11.447 8.48036 11.5685 8.37013C11.8074 8.14924 12.1233 8.0262 12.4517 8.0262C12.7801 8.0262 13.0961 8.14924 13.335 8.37013ZM21.6628 10.1262C21.5335 10.0129 21.4377 9.86768 21.3852 9.70571C21.3127 9.55957 21.278 9.39818 21.2842 9.23578C21.2819 9.07355 21.3144 8.91265 21.3796 8.76352C21.4448 8.61439 21.5413 8.48036 21.6628 8.37013C21.8986 8.14354 22.2157 8.01662 22.546 8.01662C22.8763 8.01662 23.1934 8.14354 23.4293 8.37013C23.5508 8.48036 23.6472 8.61439 23.7124 8.76352C23.7776 8.91265 23.8101 9.07355 23.8078 9.23578C23.8134 9.39812 23.7788 9.55938 23.7069 9.70571C23.6543 9.86763 23.5584 10.0128 23.4293 10.1262C23.191 10.3482 22.8748 10.472 22.546 10.472C22.2173 10.472 21.9011 10.3482 21.6628 10.1262Z" fill="#E8B23D"/>
</svg>
