<svg width="34" height="34" viewBox="0 0 34 34" fill="none" xmlns="http://www.w3.org/2000/svg">
<path d="M9.8 5C9.8 2.79085 11.5909 1 13.8 1C16.0091 1 17.8 2.79085 17.8 5V7.4H19.4C21.6365 7.4 22.7548 7.4 23.6369 7.76537C24.813 8.25255 25.7474 9.18699 26.2346 10.3631C26.6 11.2452 26.6 12.3635 26.6 14.6H29C31.2091 14.6 33 16.3909 33 18.6C33 20.8091 31.2091 22.6 29 22.6H26.6V25.32C26.6 28.0082 26.6 29.3524 26.0768 30.3792C25.6167 31.2823 24.8823 32.0167 23.9792 32.4768C22.9524 33 21.6082 33 18.92 33H17.8V30.2C17.8 28.2118 16.1882 26.6 14.2 26.6C12.2118 26.6 10.6 28.2118 10.6 30.2V33H8.68C5.99175 33 4.64763 33 3.62084 32.4768C2.71766 32.0167 1.98334 31.2823 1.52316 30.3792C1 29.3524 1 28.0082 1 25.32V23.4205H3.4C5.60915 23.4205 7.4 21.6297 7.4 19.4205C7.4 17.2114 5.60915 15.4205 3.4 15.4205H1C1 13.184 1 11.2452 1.36538 10.3631C1.85255 9.18699 2.787 8.25255 3.96312 7.76537C4.84521 7.4 5.96349 7.4 8.2 7.4H9.8V5Z" stroke="#ED8172" stroke-width="2" stroke-linecap="round" stroke-linejoin="round"/>
</svg>
