<svg width="35" height="32" viewBox="0 0 35 32" fill="none" xmlns="http://www.w3.org/2000/svg">
<path d="M18.9457 17.4533C21.3619 17.4533 23.3206 19.4068 23.3206 21.8166L23.3183 23.9935C23.6184 29.3358 19.4927 32 11.842 32C4.21602 32 0 29.3707 0 24.0697V21.8166C0 19.4068 1.95872 17.4533 4.37492 17.4533H18.9457ZM30.6139 17.4533C33.0301 17.4533 34.9888 19.4068 34.9888 21.8166L34.9866 23.3483C35.2503 28.1406 31.6049 30.5432 24.9417 30.5432C24.0372 30.5432 23.1869 30.4993 22.3927 30.4113C23.2405 29.6336 23.872 28.7052 24.2743 27.6267L24.9417 27.6343C30.1455 27.6343 32.226 26.2631 32.0722 23.428V21.8166C32.0722 21.0133 31.4193 20.3621 30.6139 20.3621L24.5951 20.3621C24.2999 19.218 23.6644 18.2101 22.8028 17.4521L30.6139 17.4533ZM18.9457 20.3621H4.37492C3.56952 20.3621 2.91661 21.0133 2.91661 21.8166V24.0697C2.91661 27.4032 5.62306 29.0911 11.842 29.0911C18.0363 29.0911 20.5908 27.4415 20.404 24.0748V21.8166C20.404 21.0133 19.7511 20.3621 18.9457 20.3621ZM11.6664 0C15.6941 0 18.9592 3.2564 18.9592 7.27337C18.9592 11.2903 15.6941 14.5467 11.6664 14.5467C7.6388 14.5467 4.37374 11.2903 4.37374 7.27337C4.37374 3.2564 7.6388 0 11.6664 0ZM26.2495 2.90888C29.4711 2.90888 32.0827 5.51357 32.0827 8.72663C32.0827 11.9397 29.4711 14.5444 26.2495 14.5444C23.0279 14.5444 20.4163 11.9397 20.4163 8.72663C20.4163 5.51357 23.0279 2.90888 26.2495 2.90888ZM11.6664 2.90888C9.2496 2.90888 7.29035 4.86293 7.29035 7.27337C7.29035 9.68381 9.2496 11.6379 11.6664 11.6379C14.0833 11.6379 16.0425 9.68381 16.0425 7.27337C16.0425 4.86293 14.0833 2.90888 11.6664 2.90888ZM26.2495 5.81775C24.6387 5.81775 23.3329 7.1201 23.3329 8.72663C23.3329 10.3332 24.6387 11.6355 26.2495 11.6355C27.8603 11.6355 29.1661 10.3332 29.1661 8.72663C29.1661 7.1201 27.8603 5.81775 26.2495 5.81775Z" fill="#C8E83D"/>
</svg>
