<svg width="30" height="30" viewBox="0 0 30 30" fill="none" xmlns="http://www.w3.org/2000/svg">
<path d="M19.4375 11.2499C19.5931 11.3092 19.7585 11.3389 19.925 11.3374H24.925C25.2565 11.3374 25.5745 11.2057 25.8089 10.9713C26.0433 10.7369 26.175 10.419 26.175 10.0874C26.175 9.75592 26.0433 9.43798 25.8089 9.20356C25.5745 8.96914 25.2565 8.83744 24.925 8.83744H22.9375L27.05 4.72494C27.1809 4.61288 27.2871 4.47499 27.3622 4.3199C27.4372 4.16482 27.4794 3.99591 27.486 3.82376C27.4927 3.65161 27.4636 3.47994 27.4008 3.31954C27.338 3.15913 27.2426 3.01345 27.1208 2.89163C26.999 2.76981 26.8533 2.67449 26.6929 2.61165C26.5325 2.5488 26.3608 2.51979 26.1887 2.52644C26.0165 2.53309 25.8476 2.57526 25.6925 2.65029C25.5375 2.72531 25.3996 2.83159 25.2875 2.96244L21.175 7.06244V5.07494C21.175 4.74342 21.0433 4.42548 20.8089 4.19106C20.5745 3.95664 20.2565 3.82494 19.925 3.82494C19.5935 3.82494 19.2755 3.95664 19.0411 4.19106C18.8067 4.42548 18.675 4.74342 18.675 5.07494V10.0749C18.6736 10.2415 18.7032 10.4068 18.7625 10.5624C18.8239 10.716 18.9152 10.8558 19.0311 10.9738C19.147 11.0919 19.2851 11.1857 19.4375 11.2499ZM24.3 16.2499C24.025 16.2499 23.7375 16.1624 23.4625 16.0999C22.9056 15.9772 22.3583 15.8143 21.825 15.6124C21.2451 15.4015 20.6077 15.4124 20.0354 15.6432C19.4631 15.874 18.9964 16.3082 18.725 16.8624L18.45 17.4249C17.2325 16.7477 16.1137 15.9065 15.125 14.9249C14.1435 13.9362 13.3023 12.8174 12.625 11.5999L13.15 11.2499C13.7042 10.9786 14.1385 10.5119 14.3692 9.93956C14.6 9.36726 14.611 8.72983 14.4 8.14994C14.2015 7.61547 14.0387 7.06844 13.9125 6.51244C13.85 6.23744 13.8 5.94994 13.7625 5.66244C13.6107 4.78197 13.1495 3.98462 12.462 3.41399C11.7745 2.84336 10.9059 2.53695 10.0125 2.54994H6.2625C5.72379 2.54488 5.19032 2.65596 4.69839 2.87561C4.20647 3.09525 3.76764 3.41831 3.41179 3.82279C3.05594 4.22728 2.79142 4.70368 2.63624 5.21958C2.48106 5.73549 2.43885 6.27877 2.5125 6.81244C3.17843 12.0492 5.57004 16.9148 9.30957 20.6407C13.0491 24.3667 17.9234 26.7406 23.1625 27.3874H23.6375C24.5593 27.3888 25.4493 27.0506 26.1375 26.4374C26.533 26.0837 26.8489 25.6502 27.0643 25.1653C27.2798 24.6805 27.39 24.1555 27.3875 23.6249V19.8749C27.3722 19.0067 27.056 18.1706 26.4929 17.5095C25.9298 16.8484 25.1548 16.4032 24.3 16.2499ZM24.925 23.7499C24.9248 23.9274 24.8868 24.1028 24.8135 24.2645C24.7402 24.4261 24.6333 24.5703 24.5 24.6874C24.3603 24.808 24.197 24.8981 24.0205 24.9519C23.844 25.0057 23.6582 25.0221 23.475 24.9999C18.7936 24.3997 14.4453 22.258 11.1159 18.9128C7.7865 15.5676 5.66552 11.2091 5.0875 6.52494C5.06761 6.34184 5.08504 6.15661 5.13876 5.98043C5.19247 5.80426 5.28134 5.6408 5.4 5.49994C5.51714 5.36661 5.66133 5.25974 5.82298 5.18646C5.98462 5.11318 6.16002 5.07517 6.3375 5.07494H10.0875C10.3782 5.06847 10.662 5.16354 10.8902 5.34378C11.1183 5.52402 11.2765 5.77815 11.3375 6.06244C11.3875 6.40411 11.45 6.74161 11.525 7.07494C11.6694 7.73387 11.8616 8.38142 12.1 9.01244L10.35 9.82494C10.2004 9.89359 10.0658 9.99113 9.95395 10.1119C9.84212 10.2327 9.75525 10.3745 9.69834 10.5289C9.64143 10.6834 9.61559 10.8476 9.62231 11.0121C9.62903 11.1766 9.66818 11.3381 9.7375 11.4874C11.5365 15.3409 14.6341 18.4384 18.4875 20.2374C18.7918 20.3625 19.1332 20.3625 19.4375 20.2374C19.5934 20.1817 19.7367 20.0955 19.859 19.9839C19.9813 19.8723 20.0802 19.7376 20.15 19.5874L20.925 17.8374C21.5712 18.0685 22.2307 18.2606 22.9 18.4124C23.2333 18.4874 23.5708 18.5499 23.9125 18.5999C24.1968 18.6609 24.4509 18.8191 24.6312 19.0473C24.8114 19.2754 24.9065 19.5593 24.9 19.8499L24.925 23.7499Z" fill="white"/>
</svg>
