<svg width="30" height="27" viewBox="0 0 30 27" fill="none" xmlns="http://www.w3.org/2000/svg">
<path d="M29.67 5.28C29.1957 3.74942 28.2436 2.41098 26.9534 1.46081C25.6631 0.510643 24.1024 -0.0012986 22.5 2.47383e-06H7.5C5.89761 -0.0012986 4.33693 0.510643 3.04664 1.46081C1.75636 2.41098 0.804307 3.74942 0.33 5.28C0.113492 6.00021 0.00234021 6.74796 0 7.5V19.5C0.000795075 21.4889 0.791227 23.3961 2.19758 24.8024C3.60393 26.2088 5.51112 26.9992 7.5 27H22.5C24.4889 26.9992 26.3961 26.2088 27.8024 24.8024C29.2088 23.3961 29.9992 21.4889 30 19.5V7.5C29.9977 6.74796 29.8865 6.00021 29.67 5.28ZM7.5 3H22.5C23.5676 3.0032 24.5995 3.38471 25.4124 4.07676C26.2252 4.76882 26.7665 5.72661 26.94 6.78L15 13.29L3.06 6.78C3.23349 5.72661 3.77476 4.76882 4.58765 4.07676C5.40054 3.38471 6.43242 3.0032 7.5 3ZM27 19.5C26.9964 20.6924 26.5212 21.8349 25.678 22.678C24.8349 23.5212 23.6924 23.9964 22.5 24H7.5C6.30762 23.9964 5.1651 23.5212 4.32195 22.678C3.47881 21.8349 3.00356 20.6924 3 19.5V10.17L14.28 16.32C14.5015 16.4384 14.7488 16.5004 15 16.5004C15.2512 16.5004 15.4985 16.4384 15.72 16.32L27 10.17V19.5Z" fill="white"/>
</svg>
