<svg width="34" height="34" viewBox="0 0 34 34" fill="none" xmlns="http://www.w3.org/2000/svg">
<path fill-rule="evenodd" clip-rule="evenodd" d="M17.0852 2.00012C11.8203 1.97897 6.92835 4.71068 4.19075 9.20064C1.45315 13.6906 1.26938 19.2836 3.70635 23.9431L4.00684 24.5288C4.25314 24.9897 4.30466 25.5298 4.14993 26.0288C3.72113 27.1677 3.36273 28.3318 3.07676 29.5145C3.07676 30.1145 3.24846 30.4573 3.89237 30.4431C5.03285 30.1912 6.15601 29.8667 7.25497 29.4716C7.72829 29.3413 8.23156 29.3714 8.68587 29.5573C9.10083 29.7573 9.94506 30.2716 9.97368 30.2716C15.4873 33.1708 22.2212 32.371 26.8996 28.2612C31.5781 24.1515 33.2298 17.5851 31.0514 11.7562C28.873 5.92726 23.3166 2.04592 17.0852 2.00012Z" stroke="white" stroke-width="3" stroke-linecap="round" stroke-linejoin="round"/>
<path d="M9.93066 18.5C10.7591 18.5 11.4307 17.8284 11.4307 17C11.4307 16.1716 10.7591 15.5 9.93066 15.5C9.10224 15.5 8.43066 16.1716 8.43066 17C8.43066 17.8284 9.10224 18.5 9.93066 18.5Z" fill="white" stroke="white" stroke-width="3" stroke-linecap="round" stroke-linejoin="round"/>
<path d="M17.0853 18.5C17.9138 18.5 18.5853 17.8284 18.5853 17C18.5853 16.1716 17.9138 15.5 17.0853 15.5C16.2569 15.5 15.5853 16.1716 15.5853 17C15.5853 17.8284 16.2569 18.5 17.0853 18.5Z" fill="white" stroke="white" stroke-width="3" stroke-linecap="round" stroke-linejoin="round"/>
<path d="M24.2389 18.5C25.0673 18.5 25.7389 17.8284 25.7389 17C25.7389 16.1716 25.0673 15.5 24.2389 15.5C23.4105 15.5 22.7389 16.1716 22.7389 17C22.7389 17.8284 23.4105 18.5 24.2389 18.5Z" fill="white" stroke="white" stroke-width="3" stroke-linecap="round" stroke-linejoin="round"/>
</svg>
