<svg width="28" height="30" viewBox="0 0 28 30" fill="none" xmlns="http://www.w3.org/2000/svg">
<path d="M13.0667 0.031282C5.63111 0.520769 0 7.13673 0 14.7001V25.2635C0 27.8846 2.08444 30.0005 4.66667 30.0005H6.22222C7.93333 30.0005 9.33333 28.5794 9.33333 26.8425V20.5266C9.33333 18.7897 7.93333 17.3686 6.22222 17.3686H3.11111V14.6685C3.11111 8.60519 7.71556 3.33137 13.6733 3.15768C19.8489 2.98399 24.8889 7.98939 24.8889 14.2106V17.3686H21.7778C20.0667 17.3686 18.6667 18.7897 18.6667 20.5266V26.8425C18.6667 28.5794 20.0667 30.0005 21.7778 30.0005H23.3333C25.9156 30.0005 28 27.8846 28 25.2635V14.2106C28 6.04723 21.2178 -0.505574 13.0667 0.031282Z" fill="white"/>
</svg>
