<svg width="34" height="34" viewBox="0 0 34 34" fill="none" xmlns="http://www.w3.org/2000/svg">
<path d="M12.7722 17.6641L14.4892 19.3811C15.2344 20.1263 16.4655 20.1263 17.243 19.3811L22.1674 14.4243" stroke="white" stroke-width="3" stroke-linecap="round" stroke-linejoin="round"/>
<path d="M13.3229 3.60367C13.8089 3.18251 14.0356 2.98812 14.2948 2.82613C15.9471 1.72462 18.0853 1.72462 19.7052 2.82613C19.932 2.98812 20.1911 3.18251 20.6771 3.60367C20.8715 3.76566 20.9687 3.86285 21.0659 3.92765C21.7462 4.446 22.5562 4.76998 23.3985 4.89957C23.5281 4.89957 23.6577 4.93197 23.9168 4.93197C24.5648 4.99676 24.8564 4.99676 25.1479 5.06155C27.0918 5.45032 28.5821 6.9406 28.9708 8.88445C29.0356 9.14363 29.0356 9.4676 29.1004 10.1156C29.1328 10.3747 29.1328 10.5043 29.1328 10.6339C29.23 11.4762 29.5864 12.2862 30.1048 12.9665C30.1695 13.0637 30.2667 13.1609 30.4287 13.3553C30.8499 13.8413 31.0443 14.068 31.2063 14.3272C32.3078 15.9795 32.3078 18.1177 31.2063 19.7376C31.0443 19.9644 30.8499 20.2235 30.4287 20.7095C30.2667 20.9039 30.1695 21.0011 30.1048 21.0983C29.5864 21.7786 29.2624 22.5886 29.1328 23.4309C29.1004 23.5605 29.1004 23.6901 29.1004 23.9492C29.0356 24.5972 29.0356 24.8888 28.9708 25.1803C28.5497 27.0594 27.027 28.5821 25.0832 28.9384C24.824 29.0032 24.5 29.0032 23.8521 29.068C23.5929 29.1004 23.4633 29.1004 23.3337 29.1004C22.4914 29.1976 21.6814 29.554 21.0011 30.0724C20.9039 30.1371 20.8067 30.2343 20.6123 30.3963C20.1264 30.8175 19.8996 31.0119 19.6404 31.1739C17.9881 32.2754 15.8499 32.2754 14.23 31.1739C14.0032 31.0119 13.7441 30.8175 13.2581 30.3963C13.0637 30.2343 12.9665 30.1371 12.8693 30.0724C12.189 29.554 11.379 29.23 10.5367 29.1004C10.4071 29.068 10.2775 29.068 10.0184 29.068C9.37041 29.0032 9.07883 29.0032 8.78726 28.9384C6.94061 28.5821 5.41793 27.0594 5.06156 25.1155C4.99676 24.8564 4.99676 24.5324 4.93197 23.8844C4.89957 23.6253 4.89957 23.4957 4.89957 23.3661C4.80238 22.5238 4.44601 21.7138 3.92765 21.0335C3.86285 20.9363 3.76566 20.8391 3.60367 20.6447C3.18251 20.1587 2.98812 19.932 2.82613 19.6728C1.72462 18.0205 1.72462 15.8823 2.82613 14.2624C2.98812 14.0356 3.18251 13.7765 3.60367 13.2905C3.76566 13.0961 3.86285 12.9989 3.92765 12.9017C4.44601 12.2214 4.76998 11.4114 4.89957 10.5691C4.89957 10.4395 4.93197 10.3099 4.93197 10.0508C4.99676 9.40281 4.99676 9.11123 5.06156 8.81965C5.41793 6.973 6.94061 5.45032 8.88445 5.09395C9.14363 5.02916 9.4676 5.02916 10.1156 4.96436C10.3747 4.93196 10.5043 4.93197 10.6339 4.93197C11.4762 4.83477 12.2862 4.4784 12.9665 3.96004C13.0313 3.86285 13.1285 3.79806 13.3229 3.60367Z" stroke="white" stroke-width="3"/>
</svg>
