<svg width="30" height="30" viewBox="0 0 30 30" fill="none" xmlns="http://www.w3.org/2000/svg">
<path d="M24.7031 17.0156C24.2344 16.875 23.8125 16.7344 23.5312 16.5938C25.125 15.3281 26.25 13.2188 26.25 10.3594C26.25 7.21875 23.6719 4.6875 20.5312 4.6875C20.0625 1.96875 17.7188 0 15 0C12.2812 0 9.98438 2.01562 9.46875 4.6875C6.32813 4.6875 3.75 7.21875 3.75 10.2656C3.75 12.6562 4.73438 15.1406 6.46875 16.5469L6.42188 16.5938C6.14062 16.7344 5.71875 16.875 5.29688 17.0156C3.32813 17.6719 0 18.7969 0 22.6406V25.1719C0 25.6875 0.421875 26.1094 0.9375 26.1094H3.84375C3.79688 26.4375 3.75 26.8125 3.75 27.1875V29.0625C3.75 29.5781 4.17188 30 4.6875 30H25.3125C25.8281 30 26.25 29.5781 26.25 29.0625V27.1875C26.25 26.8125 26.2031 26.4375 26.1562 26.1094H29.0625C29.5781 26.1094 30 25.6875 30 25.1719V22.6406C30 18.7969 26.6719 17.6719 24.7031 17.0156ZM24.375 10.3594C24.375 12.7031 23.1562 15.2344 21.0938 15.7969C21.375 14.8125 21.5625 13.7812 21.5625 12.6562C21.5625 10.3125 20.3438 8.25 18.4688 7.125C19.0781 6.79688 19.7812 6.5625 20.4844 6.5625C22.6406 6.5625 24.375 8.25 24.375 10.3594ZM10.3125 12.6562C10.3125 10.0781 12.4219 7.96875 15 7.96875C17.5781 7.96875 19.6875 10.0781 19.6875 12.6562C19.6875 16.125 17.3438 19.6875 15 19.6875C12.6562 19.6875 10.3125 16.125 10.3125 12.6562ZM15 1.875C16.7812 1.875 18.3281 3.1875 18.6562 4.96875C17.8594 5.25 17.1094 5.67188 16.4531 6.23438C15.9844 6.14062 15.4688 6.04688 15 6.04688C14.4844 6.04688 14.0156 6.09375 13.5469 6.23438C12.9375 5.67188 12.1875 5.20312 11.3438 4.96875C11.6719 3.1875 13.2188 1.875 15 1.875ZM5.625 10.2656C5.625 8.20312 7.35937 6.5625 9.51562 6.5625C10.2188 6.5625 10.9219 6.75 11.5312 7.125C9.65625 8.25 8.4375 10.3125 8.4375 12.6562C8.4375 13.7812 8.625 14.8125 8.90625 15.7969C6.84375 15.1875 5.625 12.6562 5.625 10.2656ZM1.875 24.2344V22.6406C1.875 20.3438 3.60938 19.5469 5.90625 18.7969C6.42188 18.6094 6.89062 18.4688 7.26562 18.2812C7.64062 18.0938 7.96875 17.8594 8.25 17.5312C8.71875 17.6719 9.23438 17.7656 9.79688 17.8125C10.3125 18.7031 10.9219 19.5 11.625 20.1094C11.5312 20.1562 11.4375 20.2031 11.3438 20.25C11.0156 20.3906 10.5 20.5781 9.9375 20.7656C8.25 21.3281 5.76562 22.125 4.54688 24.2344H1.875ZM28.125 24.2344H25.5C24.2812 22.1719 21.9375 21.375 20.4844 20.9062C19.9688 20.7656 19.4531 21 19.3125 21.5156C19.1719 21.9844 19.4062 22.5469 19.9219 22.6875C22.3125 23.4844 24.4219 24.4219 24.4219 27.1875V28.125H5.625V27.1875C5.625 24.375 7.73438 23.4375 10.5 22.5469C11.1562 22.3594 11.6719 22.1719 12.0938 21.9375C12.5156 21.75 12.8906 21.4688 13.1719 21.1406C13.7812 21.4219 14.3906 21.5625 15 21.5625C16.9219 21.5625 18.9375 20.1094 20.25 17.8125C20.7656 17.8125 21.2812 17.7188 21.7969 17.5312C22.0781 17.8594 22.4062 18.0938 22.7812 18.2812C23.1562 18.4688 23.625 18.6094 24.1406 18.7969C26.3906 19.5469 28.1719 20.3438 28.1719 22.6406V24.2344H28.125Z" fill="white"/>
</svg>
