<svg width="16" height="15" viewBox="0 0 16 15" fill="none" xmlns="http://www.w3.org/2000/svg">
<path d="M6.89249 0.814533C7.25939 0.0718067 8.31851 0.0717072 8.68555 0.814363L10.1595 3.79677C10.3053 4.09172 10.5868 4.2961 10.9124 4.34334L14.2035 4.82088C15.0241 4.93994 15.3516 5.94849 14.7576 6.52695L12.3762 8.84586C12.1401 9.07573 12.0324 9.40713 12.0883 9.73185L12.6511 13.0029C12.7916 13.8198 11.9344 14.4432 11.2006 14.0578L8.25387 12.5102C7.96271 12.3573 7.61499 12.3573 7.32385 12.5103L4.37803 14.0577C3.64429 14.4432 2.78707 13.82 2.92742 13.0031L3.48954 9.73164C3.54531 9.40703 3.43767 9.07578 3.20173 8.84596L0.820915 6.5269C0.227003 5.9484 0.554569 4.93998 1.37507 4.82093L4.6664 4.34336C4.99206 4.29611 5.27363 4.09166 5.41938 3.79662L6.89249 0.814533Z" fill="#FFCC02"/>
</svg>
