<svg width="28" height="19" viewBox="0 0 28 19" fill="none" xmlns="http://www.w3.org/2000/svg">
<g clip-path="url(#clip0_156_1984)">
<path fill-rule="evenodd" clip-rule="evenodd" d="M11.4232 13.0038L11.4221 5.41388L18.7177 9.22171L11.4232 13.0038ZM27.441 4.09842C27.441 4.09842 27.1766 2.23754 26.3677 1.41718C25.3406 0.340888 24.1903 0.335861 23.6627 0.273272C19.8843 7.6443e-06 14.2172 0 14.2172 0H14.2048C14.2048 0 8.5376 -5.46259e-06 4.75928 0.273818C4.2311 0.335847 3.08134 0.340888 2.05365 1.41718C1.24421 2.23698 0.980966 4.09842 0.980966 4.09842C0.980966 4.09842 0.710968 6.28508 0.710968 8.47064V10.5204C0.710968 12.7065 0.980966 14.8921 0.980966 14.8921C0.980966 14.8921 1.24421 16.7535 2.05365 17.5733C3.08134 18.6496 4.43021 18.6161 5.03096 18.7284C7.19096 18.9357 14.211 19 14.211 19C14.211 19 19.8843 18.9916 23.6627 18.7178C24.1903 18.6546 25.3406 18.6496 26.3677 17.5733C27.1772 16.7535 27.441 14.8921 27.441 14.8921C27.441 14.8921 27.711 12.7071 27.711 10.5204V8.47064C27.711 6.28508 27.441 4.09842 27.441 4.09842Z" fill="white"/>
</g>
<defs>
<clipPath id="clip0_156_1984">
<rect width="27" height="19" fill="white" transform="translate(0.710968)"/>
</clipPath>
</defs>
</svg>
